<svg id="svg" version="1.1" xmlns="http://www.w3.org/2000/svg" xmlns:xlink="http://www.w3.org/1999/xlink" width="400" height="159.89583333333334" viewBox="0, 0, 400,159.89583333333334"><g id="svgg"><path id="path0" d="M269.461 42.964 C 267.865 43.006,267.653 43.047,267.493 43.347 C 267.217 43.861,267.348 52.200,267.637 52.548 C 267.871 52.829,278.948 52.984,280.844 52.733 L 281.667 52.624 281.667 47.823 C 281.667 43.395,281.644 43.016,281.375 42.936 C 281.090 42.851,273.018 42.870,269.461 42.964 M52.333 45.006 C 51.921 45.077,51.023 45.224,50.338 45.332 C 49.654 45.439,48.979 45.588,48.838 45.661 C 48.698 45.735,48.246 45.850,47.833 45.918 C 47.421 45.986,46.935 46.145,46.755 46.271 C 46.574 46.397,46.233 46.500,45.996 46.500 C 45.760 46.500,45.495 46.568,45.408 46.651 C 45.321 46.734,44.800 46.991,44.250 47.221 C 43.261 47.635,40.654 49.027,40.278 49.343 C 40.171 49.432,39.558 49.893,38.917 50.367 C 35.291 53.043,32.269 57.190,30.623 61.750 C 30.128 63.122,29.833 64.139,29.833 64.475 C 29.833 64.666,29.730 65.143,29.605 65.536 C 29.105 67.097,28.764 71.469,28.982 73.520 C 29.340 76.894,29.768 79.450,30.124 80.333 C 30.216 80.563,30.423 81.162,30.585 81.667 C 30.872 82.564,31.235 83.501,31.489 84.000 C 32.149 85.298,33.085 86.967,33.270 87.180 C 33.397 87.325,33.500 87.499,33.500 87.567 C 33.500 87.635,33.594 87.789,33.708 87.910 C 33.823 88.031,34.067 88.342,34.250 88.601 C 35.743 90.713,40.921 95.167,41.882 95.167 C 41.939 95.167,42.352 95.383,42.801 95.647 C 43.249 95.912,43.796 96.179,44.016 96.241 C 44.236 96.303,44.567 96.419,44.750 96.499 C 44.933 96.579,45.346 96.757,45.667 96.894 C 46.199 97.122,47.479 97.479,49.527 97.971 C 52.296 98.636,73.057 98.996,74.561 98.405 C 74.908 98.269,74.919 84.019,74.572 83.672 C 74.478 83.578,70.326 83.491,64.332 83.457 L 54.250 83.398 53.163 82.979 C 52.566 82.748,51.717 82.339,51.277 82.071 C 50.838 81.803,50.324 81.497,50.135 81.391 C 49.618 81.101,47.833 79.290,47.833 79.055 C 47.833 78.942,47.730 78.790,47.604 78.717 C 47.021 78.378,45.904 75.453,45.512 73.240 C 44.654 68.391,48.005 62.236,52.347 60.688 C 54.682 59.856,54.714 59.853,64.750 59.747 C 69.975 59.692,74.307 59.590,74.377 59.521 C 74.447 59.453,74.484 56.138,74.460 52.157 L 74.417 44.917 63.750 44.897 C 57.883 44.886,52.746 44.935,52.333 45.006 M343.083 58.501 C 338.849 59.172,335.150 61.496,333.802 64.333 C 332.802 66.437,332.650 67.103,332.549 69.819 C 332.458 72.267,332.790 73.657,333.883 75.403 C 334.239 75.971,336.073 77.867,336.417 78.022 C 336.600 78.104,336.975 78.316,337.250 78.492 C 338.005 78.977,340.104 79.979,340.624 80.103 C 340.877 80.163,341.158 80.269,341.250 80.337 C 341.342 80.406,341.679 80.515,342.000 80.580 C 342.321 80.644,342.921 80.800,343.333 80.924 C 343.746 81.049,344.571 81.271,345.167 81.418 C 346.299 81.698,347.404 81.992,348.876 82.405 C 349.357 82.540,349.938 82.684,350.167 82.725 C 350.573 82.798,351.624 83.189,352.869 83.730 C 355.555 84.898,356.135 88.329,353.874 89.672 C 350.325 91.779,346.261 90.265,345.584 86.583 L 345.400 85.583 338.843 85.540 L 332.287 85.496 332.385 87.373 C 332.565 90.817,333.891 93.415,336.479 95.397 C 337.338 96.055,339.795 97.333,340.201 97.333 C 340.295 97.333,340.719 97.441,341.144 97.572 C 344.769 98.691,351.816 98.965,356.250 98.158 C 357.891 97.860,360.404 97.222,360.797 97.004 C 361.160 96.802,362.624 96.167,362.724 96.167 C 363.150 96.167,366.667 93.166,366.667 92.803 C 366.667 92.726,366.892 92.353,367.167 91.974 C 367.442 91.594,367.667 91.160,367.667 91.008 C 367.667 90.857,367.734 90.662,367.817 90.575 C 369.096 89.230,368.856 83.378,367.405 80.522 C 366.273 78.293,364.111 76.639,361.167 75.748 C 360.662 75.595,360.100 75.406,359.917 75.328 C 359.733 75.250,359.246 75.111,358.833 75.019 C 357.696 74.765,354.533 74.012,353.500 73.749 C 352.996 73.620,352.021 73.395,351.333 73.249 C 349.828 72.930,348.342 72.512,348.000 72.314 C 347.863 72.234,347.472 72.049,347.133 71.902 C 345.924 71.382,345.541 70.033,346.145 68.417 C 347.345 65.201,353.883 66.039,354.433 69.478 C 354.516 70.000,354.631 70.190,354.897 70.248 C 356.032 70.495,368.031 70.869,368.236 70.664 C 368.504 70.396,368.129 69.624,367.667 69.489 C 366.149 69.047,364.689 68.570,364.333 68.399 C 364.104 68.290,363.467 68.002,362.917 67.760 C 361.854 67.292,361.625 67.178,359.667 66.129 C 358.419 65.461,355.892 63.688,354.167 62.270 C 353.846 62.007,353.149 61.388,352.619 60.896 C 352.089 60.403,351.500 60.000,351.311 60.000 C 351.123 60.000,350.769 59.895,350.526 59.766 C 348.324 58.603,345.485 58.120,343.083 58.501 M310.667 58.769 C 308.624 59.292,306.602 60.016,306.333 60.322 C 306.287 60.374,306.049 60.529,305.804 60.667 C 305.148 61.035,304.194 61.810,303.263 62.730 C 302.102 63.878,301.711 63.493,301.674 61.167 C 301.667 60.754,301.617 60.248,301.562 60.042 L 301.461 59.667 294.684 59.667 C 286.982 59.667,287.066 59.654,287.368 60.789 C 287.469 61.172,287.591 68.391,287.680 79.328 C 287.760 89.179,287.862 97.335,287.908 97.453 C 288.048 97.818,301.762 97.760,301.902 97.394 C 301.960 97.243,302.003 91.562,301.998 84.769 C 301.987 70.394,301.919 70.987,303.821 68.944 C 306.267 66.318,312.378 67.091,313.101 70.118 C 313.163 70.374,313.285 70.675,313.373 70.787 C 313.553 71.017,313.765 71.816,314.002 73.166 C 314.094 73.693,314.166 78.974,314.170 85.583 C 314.174 92.308,314.241 97.186,314.331 97.331 C 314.510 97.620,327.666 97.601,328.208 97.311 C 328.535 97.136,328.484 72.299,328.153 70.344 C 328.069 69.846,328.000 69.167,328.000 68.835 C 328.000 68.502,327.890 68.085,327.755 67.907 C 327.621 67.729,327.508 67.445,327.505 67.276 C 327.502 67.107,327.376 66.732,327.225 66.442 C 327.074 66.153,326.838 65.692,326.701 65.417 C 325.882 63.778,324.030 61.744,322.515 60.820 C 320.695 59.709,319.899 59.379,317.833 58.879 C 316.348 58.519,311.909 58.451,310.667 58.769 M245.750 58.986 C 244.690 59.149,243.400 59.485,242.725 59.775 C 242.436 59.899,242.115 60.000,242.012 60.000 C 240.850 60.000,235.517 64.053,235.503 64.946 C 235.499 65.210,234.666 65.853,234.478 65.736 C 234.396 65.686,234.173 65.339,233.982 64.965 C 233.571 64.159,233.534 64.112,232.250 62.769 C 231.099 61.565,229.844 60.716,228.417 60.174 C 227.867 59.965,227.304 59.739,227.166 59.671 C 227.028 59.604,226.044 59.417,224.978 59.256 C 219.308 58.399,213.262 60.758,210.573 64.877 C 210.140 65.541,209.753 66.121,209.713 66.166 C 209.426 66.492,209.192 65.405,209.093 63.285 C 209.032 61.982,208.943 60.710,208.894 60.456 L 208.806 59.996 201.945 60.040 L 195.083 60.083 195.110 61.167 C 195.125 61.762,195.214 63.450,195.309 64.917 C 195.403 66.389,195.486 74.344,195.493 82.683 L 195.507 97.783 195.884 97.955 C 196.251 98.122,208.449 98.078,209.285 97.906 L 209.653 97.830 209.702 85.040 C 209.744 73.703,209.780 72.193,210.016 71.750 C 210.163 71.475,210.415 70.975,210.577 70.639 C 212.037 67.604,216.898 66.645,219.557 68.868 C 220.421 69.590,221.299 71.284,221.508 72.631 C 221.589 73.155,221.732 73.883,221.824 74.250 C 221.929 74.665,221.994 79.207,221.996 86.282 C 221.999 95.191,222.045 97.675,222.208 97.776 C 222.437 97.917,235.399 97.871,235.885 97.727 C 236.174 97.642,236.185 97.097,236.135 85.527 C 236.083 73.249,236.103 72.728,236.694 71.162 C 238.267 66.998,244.618 66.192,246.935 69.862 C 248.222 71.901,248.336 73.158,248.440 86.417 C 248.488 92.467,248.556 97.511,248.592 97.627 C 248.644 97.792,250.117 97.828,255.537 97.794 L 262.417 97.750 262.459 84.693 C 262.505 70.713,262.462 69.849,261.590 67.230 C 261.038 65.571,259.163 62.945,257.797 61.917 C 254.465 59.408,250.031 58.330,245.750 58.986 M173.000 59.316 C 172.037 59.466,171.086 59.682,170.886 59.795 C 170.686 59.908,170.417 60.000,170.289 60.000 C 169.976 60.000,167.688 61.009,167.171 61.375 C 166.945 61.535,166.663 61.667,166.546 61.667 C 166.429 61.667,166.333 61.725,166.333 61.797 C 166.333 61.869,166.117 62.056,165.852 62.212 C 165.014 62.707,163.826 63.867,163.067 64.932 C 162.065 66.336,161.782 66.381,161.219 65.232 C 160.374 63.506,157.479 60.906,156.015 60.557 C 155.778 60.500,155.433 60.372,155.250 60.273 C 153.417 59.277,146.014 59.358,144.083 60.396 C 143.808 60.544,143.489 60.665,143.373 60.666 C 142.385 60.670,139.105 63.407,137.849 65.275 C 136.594 67.142,136.470 66.980,136.374 63.348 C 136.334 61.827,136.264 60.546,136.219 60.500 C 136.134 60.414,122.648 60.498,122.500 60.586 C 122.454 60.613,122.501 62.461,122.604 64.693 C 122.708 66.924,122.841 75.348,122.901 83.413 C 122.960 91.477,123.068 98.134,123.140 98.206 C 123.212 98.278,126.341 98.318,130.094 98.294 L 136.917 98.250 136.933 85.870 C 136.951 72.596,136.924 73.042,137.835 71.083 C 139.383 67.756,144.815 66.827,147.212 69.480 C 147.908 70.250,148.447 71.285,148.602 72.151 C 148.662 72.480,148.778 72.836,148.861 72.941 C 149.097 73.240,149.160 75.625,149.236 87.232 C 149.294 95.972,149.350 98.077,149.529 98.202 C 149.731 98.344,163.158 98.231,163.302 98.087 C 163.334 98.055,163.373 92.341,163.388 85.389 L 163.417 72.750 163.803 71.840 C 165.954 66.773,172.876 66.357,174.771 71.180 C 175.659 73.438,175.667 73.574,175.667 86.116 C 175.667 94.955,175.715 97.815,175.867 97.967 C 176.190 98.290,189.390 98.250,189.660 97.925 C 189.919 97.612,189.912 74.196,189.651 71.333 C 189.399 68.560,188.236 65.448,186.921 64.024 C 186.697 63.782,186.342 63.396,186.132 63.167 C 185.383 62.352,183.566 61.075,182.417 60.558 C 179.127 59.077,176.631 58.748,173.000 59.316 M267.751 59.998 C 267.659 60.148,267.661 94.556,267.754 96.645 C 267.778 97.183,267.884 97.596,268.022 97.682 C 268.349 97.888,281.555 97.664,281.693 97.450 C 281.807 97.274,281.691 60.411,281.575 60.042 C 281.493 59.777,267.914 59.734,267.751 59.998 M78.539 60.622 L 77.828 60.686 77.884 74.301 C 77.948 89.790,77.929 89.565,79.371 92.500 C 81.708 97.256,85.627 99.335,92.249 99.331 C 97.580 99.328,99.657 98.554,103.038 95.312 C 104.090 94.304,104.251 94.402,104.384 96.136 C 104.440 96.852,104.561 97.640,104.655 97.886 L 104.825 98.333 111.736 98.333 C 115.537 98.333,118.680 98.277,118.719 98.208 C 118.759 98.140,118.731 96.667,118.658 94.935 C 118.584 93.203,118.477 84.916,118.419 76.518 C 118.361 68.121,118.279 61.080,118.237 60.873 L 118.159 60.496 111.205 60.540 L 104.250 60.583 104.250 73.167 C 104.250 86.932,104.314 85.938,103.294 87.975 C 101.727 91.103,96.099 91.897,93.913 89.298 C 92.121 87.169,92.006 86.123,91.998 71.920 C 91.992 62.315,91.960 60.984,91.734 60.757 C 91.488 60.512,80.965 60.404,78.539 60.622 " stroke="none" fill="#f9f9f9" fill-rule="evenodd"></path><path id="path1" d="M0.000 79.917 L 0.000 159.833 200.000 159.833 L 400.000 159.833 400.000 79.917 L 400.000 0.000 200.000 0.000 L 0.000 0.000 0.000 79.917 M281.976 42.721 C 282.350 43.171,282.296 52.827,281.918 53.103 C 281.505 53.405,267.579 53.440,267.218 53.140 C 266.916 52.889,266.898 43.002,267.200 42.700 C 267.506 42.394,281.721 42.414,281.976 42.721 M74.760 44.403 C 75.127 44.671,75.362 59.287,75.008 59.833 C 74.818 60.127,75.047 60.117,63.083 60.321 C 54.409 60.469,52.733 60.622,52.167 61.321 C 52.121 61.377,51.896 61.519,51.667 61.637 C 50.512 62.227,50.201 62.458,49.227 63.446 C 46.601 66.111,45.193 71.225,46.240 74.298 C 46.383 74.717,46.500 75.215,46.501 75.405 C 46.502 76.537,49.669 81.000,50.471 81.000 C 50.550 81.000,50.751 81.150,50.917 81.333 C 51.083 81.517,51.348 81.667,51.505 81.667 C 51.663 81.667,51.886 81.779,52.000 81.917 C 52.114 82.054,52.334 82.167,52.489 82.167 C 52.643 82.167,52.915 82.277,53.093 82.411 C 53.271 82.546,53.642 82.658,53.918 82.661 C 54.193 82.664,54.681 82.751,55.001 82.854 C 55.410 82.985,58.433 83.030,65.130 83.004 C 72.438 82.976,74.734 83.015,74.922 83.171 C 75.196 83.398,75.302 98.730,75.031 98.898 C 74.956 98.944,70.437 99.030,64.989 99.088 C 52.411 99.224,50.993 99.112,46.083 97.592 C 45.283 97.344,45.022 97.241,43.917 96.737 C 43.642 96.611,43.229 96.434,43.000 96.342 C 42.771 96.251,42.208 95.950,41.750 95.674 C 41.292 95.397,40.729 95.077,40.500 94.961 C 38.547 93.978,33.167 88.797,33.167 87.901 C 33.167 87.772,33.096 87.667,33.009 87.667 C 32.822 87.667,32.713 87.472,31.448 84.892 C 30.916 83.806,30.410 82.788,30.325 82.631 C 30.240 82.473,30.098 82.061,30.010 81.714 C 29.587 80.059,29.444 79.558,29.308 79.250 C 29.226 79.067,29.091 78.429,29.007 77.833 C 28.923 77.237,28.777 76.412,28.684 76.000 C 28.461 75.012,28.459 68.271,28.682 67.417 C 28.778 67.050,28.956 66.188,29.078 65.500 C 29.309 64.199,29.602 62.988,29.825 62.417 C 29.897 62.233,30.124 61.633,30.330 61.083 C 30.659 60.206,31.425 58.569,32.151 57.194 C 32.280 56.950,32.448 56.725,32.526 56.694 C 32.603 56.664,32.667 56.567,32.667 56.479 C 32.667 56.334,33.289 55.365,33.509 55.167 C 33.560 55.121,33.883 54.711,34.227 54.256 C 35.894 52.047,38.667 49.611,40.967 48.333 C 41.214 48.196,41.454 48.044,41.500 47.996 C 41.695 47.791,45.215 46.167,45.464 46.167 C 45.555 46.167,45.843 46.055,46.106 45.918 C 46.369 45.781,46.720 45.668,46.886 45.668 C 47.052 45.667,47.324 45.594,47.490 45.506 C 48.240 45.104,51.030 44.622,54.167 44.352 C 57.184 44.092,74.393 44.135,74.760 44.403 M346.917 58.060 C 347.833 58.176,348.733 58.349,348.917 58.444 C 349.472 58.733,350.374 59.114,351.180 59.401 C 351.994 59.691,352.480 60.022,353.651 61.084 C 354.054 61.450,354.617 61.959,354.901 62.215 C 355.184 62.470,355.924 63.033,356.544 63.465 C 360.138 65.968,362.158 67.029,365.967 68.414 C 366.545 68.624,367.064 68.841,367.120 68.898 C 367.176 68.954,367.363 69.000,367.536 69.000 C 368.415 69.000,368.833 69.460,368.833 70.426 C 368.833 71.594,368.991 71.554,365.317 71.325 C 363.630 71.219,360.509 71.085,358.382 71.025 C 354.117 70.906,354.018 70.878,354.005 69.788 C 353.974 67.100,348.753 65.786,346.983 68.021 C 346.385 68.776,346.271 70.579,346.792 71.040 C 347.161 71.368,348.819 72.167,349.130 72.167 C 349.259 72.167,349.864 72.307,350.474 72.480 C 351.084 72.652,352.183 72.919,352.917 73.073 C 353.650 73.227,354.625 73.457,355.083 73.586 C 355.542 73.714,356.207 73.864,356.562 73.921 C 356.917 73.977,357.330 74.084,357.479 74.159 C 357.628 74.234,358.350 74.429,359.083 74.593 C 359.817 74.756,360.604 74.980,360.833 75.090 C 361.063 75.200,361.684 75.426,362.215 75.591 C 362.746 75.757,363.559 76.141,364.021 76.446 C 364.484 76.751,364.901 77.000,364.949 77.000 C 365.443 77.000,367.460 79.296,368.023 80.500 C 368.867 82.303,368.917 82.608,368.917 86.000 L 368.917 89.250 368.350 90.667 C 367.731 92.216,367.208 93.058,366.226 94.092 C 365.428 94.931,364.109 96.000,363.872 96.000 C 363.774 96.000,363.669 96.064,363.639 96.143 C 363.545 96.385,361.163 97.447,359.667 97.914 C 354.130 99.643,344.613 99.495,339.390 97.597 C 337.175 96.793,334.111 94.444,333.728 93.258 C 333.670 93.079,333.520 92.830,333.395 92.704 C 333.269 92.579,333.167 92.378,333.167 92.259 C 333.167 92.139,333.054 91.947,332.917 91.833 C 332.779 91.719,332.667 91.463,332.667 91.263 C 332.667 91.063,332.592 90.826,332.501 90.735 C 332.411 90.644,332.257 90.198,332.160 89.743 C 332.063 89.289,331.916 88.617,331.832 88.250 C 331.558 87.040,331.627 85.366,331.958 85.190 C 332.119 85.105,335.137 84.988,338.667 84.931 C 346.136 84.809,345.864 84.763,346.014 86.171 C 346.353 89.335,350.318 91.144,353.205 89.452 C 355.644 88.023,354.872 84.643,351.939 83.907 C 351.696 83.846,351.456 83.730,351.405 83.648 C 351.355 83.567,351.173 83.500,351.001 83.500 C 350.829 83.500,350.477 83.412,350.219 83.304 C 349.961 83.196,349.375 83.016,348.917 82.903 C 348.458 82.790,347.633 82.584,347.083 82.445 C 346.533 82.306,345.633 82.083,345.083 81.950 C 344.533 81.817,343.872 81.624,343.614 81.521 C 343.356 81.418,342.965 81.333,342.745 81.333 C 342.362 81.333,341.625 81.069,340.611 80.567 C 340.352 80.438,340.026 80.333,339.887 80.333 C 339.748 80.333,339.436 80.230,339.192 80.104 C 338.949 79.978,338.375 79.702,337.917 79.491 C 336.401 78.794,333.667 76.477,333.667 75.889 C 333.667 75.767,333.597 75.667,333.511 75.667 C 333.426 75.667,333.303 75.501,333.239 75.299 C 333.175 75.097,333.020 74.830,332.895 74.704 C 332.769 74.579,332.667 74.328,332.667 74.146 C 332.667 73.965,332.561 73.613,332.433 73.365 C 331.924 72.381,331.966 66.706,332.483 66.533 C 332.584 66.500,332.670 66.197,332.674 65.861 C 332.678 65.519,332.860 64.956,333.086 64.583 C 333.309 64.217,333.598 63.681,333.729 63.393 C 334.401 61.919,338.806 58.667,340.131 58.667 C 340.264 58.667,340.719 58.556,341.144 58.421 C 342.954 57.845,344.469 57.750,346.917 58.060 M316.561 58.159 C 317.466 58.240,318.287 58.387,318.386 58.486 C 318.485 58.585,318.747 58.667,318.966 58.667 C 319.400 58.667,319.947 58.885,321.761 59.784 C 323.209 60.501,324.578 61.609,325.624 62.910 C 325.922 63.280,326.266 63.696,326.390 63.833 C 326.616 64.086,326.897 64.604,327.383 65.667 C 328.027 67.076,328.223 67.635,328.346 68.417 C 328.418 68.875,328.554 69.587,328.648 70.000 C 328.926 71.219,328.894 97.576,328.614 97.808 C 328.266 98.096,314.160 98.090,313.977 97.802 C 313.901 97.682,313.835 96.046,313.831 94.167 C 313.816 87.547,313.492 73.242,313.342 72.583 C 313.027 71.201,312.765 70.410,312.553 70.196 C 312.432 70.075,312.333 69.882,312.333 69.768 C 312.333 69.509,311.265 68.600,310.446 68.161 C 308.296 67.009,303.767 68.555,303.228 70.625 C 303.174 70.831,303.081 71.000,303.020 71.000 C 302.515 71.000,302.417 73.352,302.417 85.432 C 302.417 95.511,302.377 97.661,302.188 97.890 C 301.921 98.213,288.588 98.319,287.761 98.004 L 287.333 97.842 287.330 82.046 C 287.327 69.453,287.277 65.777,287.085 63.917 C 286.787 61.037,286.771 59.629,287.033 59.367 C 287.296 59.104,301.356 59.078,301.844 59.339 C 302.130 59.492,302.167 59.701,302.167 61.173 C 302.167 63.060,302.131 63.002,302.865 62.319 C 304.694 60.616,308.041 58.667,309.137 58.667 C 309.391 58.667,309.690 58.577,309.800 58.467 C 310.179 58.087,313.877 57.919,316.561 58.159 M250.417 58.337 C 250.875 58.417,251.648 58.558,252.134 58.649 C 255.704 59.322,259.620 62.115,261.041 65.000 C 261.154 65.229,261.341 65.516,261.456 65.637 C 261.572 65.758,261.669 65.983,261.672 66.137 C 261.675 66.291,261.787 66.562,261.922 66.740 C 262.057 66.918,262.167 67.208,262.167 67.384 C 262.167 67.561,262.276 68.053,262.410 68.478 C 262.932 70.131,262.997 71.766,263.056 84.650 C 263.114 97.183,263.104 97.730,262.808 98.025 C 262.520 98.313,262.089 98.335,256.292 98.360 C 252.877 98.374,249.755 98.396,249.354 98.409 C 248.867 98.425,248.494 98.329,248.229 98.121 L 247.833 97.809 247.829 85.946 C 247.826 74.666,247.809 74.022,247.496 72.845 C 247.315 72.163,247.167 71.470,247.167 71.303 C 247.167 71.136,247.092 71.000,247.000 71.000 C 246.908 71.000,246.833 70.905,246.833 70.789 C 246.833 70.382,246.001 69.357,245.268 68.863 C 242.793 67.193,238.803 68.156,237.454 70.750 C 236.616 72.361,236.645 71.829,236.660 85.283 C 236.670 93.838,236.619 97.945,236.498 98.170 C 236.326 98.491,236.128 98.500,229.074 98.500 L 221.826 98.500 221.669 98.125 C 221.580 97.913,221.445 92.344,221.359 85.333 C 221.220 74.088,221.177 72.838,220.908 72.083 C 220.230 70.180,219.660 69.395,218.417 68.650 C 217.559 68.136,214.346 68.072,213.656 68.556 C 213.438 68.708,213.145 68.834,213.005 68.834 C 212.865 68.835,212.508 69.078,212.211 69.376 C 210.090 71.506,210.167 70.893,210.167 85.714 C 210.167 95.999,210.128 98.158,209.939 98.315 C 209.775 98.451,207.681 98.491,202.481 98.460 L 195.250 98.417 195.139 83.417 C 195.078 75.167,194.948 67.142,194.851 65.583 C 194.596 61.511,194.572 60.028,194.758 59.842 C 195.012 59.588,208.952 59.586,209.258 59.840 C 209.448 59.998,209.500 60.536,209.500 62.344 C 209.500 64.935,209.629 65.245,210.321 64.320 C 210.556 64.007,210.992 63.499,211.291 63.192 C 211.589 62.885,211.833 62.566,211.833 62.483 C 211.833 62.401,211.946 62.333,212.083 62.333 C 212.221 62.333,212.333 62.271,212.333 62.195 C 212.333 62.065,213.503 61.161,214.247 60.716 C 219.847 57.365,228.421 58.081,232.587 62.247 C 233.006 62.666,234.001 63.965,234.006 64.100 C 234.009 64.183,234.165 64.435,234.354 64.662 L 234.697 65.074 235.473 64.164 C 236.904 62.487,237.690 61.796,239.352 60.752 C 240.794 59.846,243.187 58.914,244.729 58.657 C 245.199 58.578,245.883 58.445,246.250 58.360 C 247.106 58.161,249.343 58.149,250.417 58.337 M180.771 59.305 C 186.339 61.289,189.422 65.122,190.177 71.000 C 190.418 72.875,190.370 98.290,190.125 98.448 C 189.730 98.704,175.750 98.718,175.539 98.463 C 175.408 98.305,175.323 95.136,175.254 87.828 C 175.150 76.822,174.970 72.671,174.570 72.048 C 174.440 71.845,174.333 71.567,174.333 71.431 C 174.333 70.649,172.899 69.149,171.702 68.679 C 169.194 67.695,165.255 69.100,164.727 71.167 C 164.669 71.396,164.546 71.678,164.454 71.795 C 164.362 71.911,164.228 72.286,164.155 72.628 C 164.082 72.970,163.961 73.512,163.886 73.833 C 163.811 74.154,163.787 79.766,163.833 86.304 C 163.908 96.990,163.890 98.215,163.654 98.429 C 163.298 98.751,149.353 98.787,149.033 98.467 C 148.882 98.315,148.832 95.557,148.830 87.092 C 148.826 75.358,148.732 73.682,147.971 71.667 C 146.815 68.611,143.550 67.544,140.333 69.171 C 139.627 69.529,138.167 71.038,138.167 71.411 C 138.167 71.558,138.035 71.879,137.875 72.124 C 137.604 72.539,137.583 73.465,137.583 85.465 C 137.583 100.336,137.788 98.833,135.760 98.834 C 135.113 98.835,131.996 98.878,128.833 98.930 C 123.143 99.025,123.079 99.022,122.708 98.673 L 122.333 98.320 122.323 82.869 C 122.317 74.370,122.241 66.517,122.155 65.417 C 121.799 60.877,121.788 60.562,121.984 60.196 L 122.178 59.833 129.343 59.833 L 136.508 59.833 136.648 60.208 C 136.725 60.415,136.842 61.550,136.908 62.731 C 137.034 64.980,137.144 65.620,137.321 65.121 C 137.727 63.972,141.075 61.021,142.667 60.408 C 142.804 60.355,143.142 60.206,143.417 60.077 C 144.530 59.552,147.377 58.993,149.491 58.883 C 151.233 58.793,154.218 59.179,154.431 59.523 C 154.480 59.602,154.684 59.669,154.885 59.672 C 155.086 59.675,155.550 59.823,155.917 60.000 C 156.283 60.177,156.644 60.325,156.717 60.328 C 157.293 60.352,160.204 62.709,160.833 63.660 C 160.971 63.868,161.215 64.210,161.375 64.421 C 161.535 64.631,161.667 64.884,161.667 64.985 C 161.667 65.368,162.266 65.141,162.619 64.624 C 163.672 63.083,167.482 60.167,168.442 60.167 C 168.550 60.167,168.665 60.088,168.697 59.991 C 168.730 59.895,169.017 59.748,169.336 59.665 C 169.655 59.583,170.367 59.393,170.917 59.243 C 171.467 59.094,172.179 58.908,172.500 58.831 C 174.101 58.444,179.169 58.735,180.771 59.305 M281.760 59.403 C 282.230 59.747,282.242 60.224,282.311 80.084 C 282.363 94.890,282.336 97.790,282.145 97.948 C 281.762 98.265,267.736 98.308,267.422 97.993 C 267.142 97.713,267.007 59.760,267.284 59.482 C 267.364 59.403,270.502 59.317,274.256 59.292 C 278.011 59.267,281.163 59.228,281.260 59.206 C 281.357 59.185,281.582 59.273,281.760 59.403 M118.571 60.095 C 118.805 60.329,118.834 61.840,118.842 74.137 C 118.851 86.653,118.936 91.176,119.267 96.590 C 119.430 99.251,120.216 99.000,111.710 99.000 C 103.305 99.000,104.000 99.183,104.000 96.974 C 104.000 96.163,103.934 95.500,103.852 95.500 C 103.710 95.500,101.924 96.891,101.583 97.267 C 99.365 99.717,89.852 100.968,86.549 99.245 C 86.293 99.111,86.000 99.002,85.899 99.001 C 84.584 98.994,80.432 95.620,79.539 93.833 C 79.425 93.604,79.147 93.117,78.923 92.750 C 78.698 92.383,78.509 91.933,78.502 91.750 C 78.495 91.567,78.379 91.271,78.245 91.093 C 78.110 90.915,78.000 90.568,78.000 90.322 C 78.000 90.076,77.872 89.584,77.716 89.229 C 77.304 88.294,77.098 60.774,77.500 60.427 C 77.851 60.124,91.844 59.910,92.137 60.203 C 92.282 60.349,92.336 62.628,92.344 68.992 C 92.353 77.262,92.523 83.313,92.805 85.417 C 93.356 89.542,96.775 91.457,100.560 89.763 C 101.419 89.378,102.999 87.894,103.001 87.470 C 103.002 87.349,103.107 87.049,103.235 86.803 C 103.568 86.165,103.890 83.437,103.771 82.253 C 103.588 80.425,103.633 60.467,103.820 60.280 C 104.321 59.779,118.083 59.607,118.571 60.095 " stroke="none" fill="#241c23" fill-rule="evenodd"></path><path id="path2" d="M267.200 42.700 C 266.898 43.002,266.916 52.889,267.218 53.140 C 267.579 53.440,281.505 53.405,281.918 53.103 C 282.296 52.827,282.350 43.171,281.976 42.721 C 281.721 42.414,267.506 42.394,267.200 42.700 M281.803 42.958 C 281.990 43.326,282.054 52.511,281.872 52.786 C 281.649 53.123,267.543 53.168,267.330 52.833 C 267.007 52.324,267.126 43.040,267.458 42.847 C 268.038 42.509,281.629 42.615,281.803 42.958 M54.167 44.352 C 51.030 44.622,48.240 45.104,47.490 45.506 C 47.324 45.594,47.052 45.667,46.886 45.668 C 46.720 45.668,46.369 45.781,46.106 45.918 C 45.843 46.055,45.555 46.167,45.464 46.167 C 45.215 46.167,41.695 47.791,41.500 47.996 C 41.454 48.044,41.214 48.196,40.967 48.333 C 38.667 49.611,35.894 52.047,34.227 54.256 C 33.883 54.711,33.560 55.121,33.509 55.167 C 33.289 55.365,32.667 56.334,32.667 56.479 C 32.667 56.567,32.603 56.664,32.526 56.694 C 32.448 56.725,32.280 56.950,32.151 57.194 C 31.425 58.569,30.659 60.206,30.330 61.083 C 30.124 61.633,29.897 62.233,29.825 62.417 C 29.602 62.988,29.309 64.199,29.078 65.500 C 28.956 66.188,28.778 67.050,28.682 67.417 C 28.459 68.271,28.461 75.012,28.684 76.000 C 28.777 76.412,28.923 77.237,29.007 77.833 C 29.091 78.429,29.226 79.067,29.308 79.250 C 29.444 79.558,29.587 80.059,30.010 81.714 C 30.098 82.061,30.240 82.473,30.325 82.631 C 30.410 82.788,30.916 83.806,31.448 84.892 C 32.713 87.472,32.822 87.667,33.009 87.667 C 33.096 87.667,33.167 87.772,33.167 87.901 C 33.167 88.797,38.547 93.978,40.500 94.961 C 40.729 95.077,41.292 95.397,41.750 95.674 C 42.208 95.950,42.771 96.251,43.000 96.342 C 43.229 96.434,43.642 96.611,43.917 96.737 C 45.022 97.241,45.283 97.344,46.083 97.592 C 50.557 98.977,52.290 99.157,60.833 99.124 L 67.083 99.099 60.000 98.997 C 52.520 98.889,52.064 98.849,48.333 97.962 C 45.503 97.288,41.682 95.635,40.000 94.356 C 39.679 94.112,39.079 93.689,38.667 93.417 C 34.668 90.780,30.682 84.412,29.436 78.667 C 26.516 65.210,32.194 52.400,43.333 47.309 C 48.772 44.824,50.738 44.557,64.652 44.423 C 73.421 44.338,74.246 44.354,74.527 44.608 C 74.816 44.869,74.833 45.315,74.833 52.340 L 74.833 59.794 74.458 59.895 C 74.252 59.950,70.097 59.996,65.224 59.998 C 54.375 60.001,53.272 60.150,50.609 61.982 C 48.793 63.232,46.483 66.234,46.506 67.315 C 46.509 67.463,46.778 67.058,47.104 66.417 C 47.824 64.999,48.302 64.347,49.448 63.219 C 50.265 62.415,50.571 62.197,51.667 61.637 C 51.896 61.519,52.121 61.377,52.167 61.321 C 52.733 60.622,54.409 60.469,63.083 60.321 C 75.047 60.117,74.818 60.127,75.008 59.833 C 75.362 59.287,75.127 44.671,74.760 44.403 C 74.393 44.135,57.184 44.092,54.167 44.352 M342.833 58.026 C 342.329 58.108,341.569 58.286,341.144 58.421 C 340.719 58.556,340.264 58.667,340.131 58.667 C 338.806 58.667,334.401 61.919,333.729 63.393 C 333.598 63.681,333.309 64.217,333.086 64.583 C 332.863 64.950,332.684 65.475,332.688 65.750 C 332.695 66.235,332.699 66.238,332.823 65.833 C 334.236 61.231,338.972 58.263,344.917 58.254 L 347.750 58.250 349.167 58.859 C 349.946 59.194,350.901 59.562,351.288 59.676 C 351.683 59.792,352.310 60.185,352.712 60.567 C 355.945 63.642,360.103 66.358,363.917 67.886 C 365.657 68.584,367.232 69.138,367.793 69.251 C 368.423 69.378,368.667 69.743,368.667 70.563 C 368.667 71.325,368.677 71.322,366.833 71.157 C 365.962 71.079,362.925 70.933,360.083 70.833 C 354.452 70.634,354.166 70.579,354.167 69.704 C 354.171 66.335,347.176 65.472,346.353 68.740 C 345.651 71.527,346.144 71.804,355.583 73.922 C 356.133 74.046,357.033 74.270,357.583 74.421 C 358.133 74.572,358.883 74.769,359.250 74.858 C 364.358 76.098,367.069 78.246,368.368 82.083 C 368.616 82.817,368.820 83.229,368.821 83.000 C 368.822 82.586,368.434 81.375,367.992 80.417 C 367.484 79.313,365.423 77.000,364.949 77.000 C 364.901 77.000,364.484 76.751,364.021 76.446 C 363.559 76.141,362.746 75.757,362.215 75.591 C 361.684 75.426,361.063 75.200,360.833 75.090 C 360.604 74.980,359.817 74.756,359.083 74.593 C 358.350 74.429,357.628 74.234,357.479 74.159 C 357.330 74.084,356.917 73.977,356.562 73.921 C 356.207 73.864,355.542 73.714,355.083 73.586 C 354.625 73.457,353.650 73.227,352.917 73.073 C 352.183 72.919,351.084 72.652,350.474 72.480 C 349.864 72.307,349.259 72.167,349.130 72.167 C 348.819 72.167,347.161 71.368,346.792 71.040 C 346.271 70.579,346.385 68.776,346.983 68.021 C 348.753 65.786,353.974 67.100,354.005 69.788 C 354.018 70.878,354.117 70.906,358.382 71.025 C 360.509 71.085,363.630 71.219,365.317 71.325 C 368.991 71.554,368.833 71.594,368.833 70.426 C 368.833 69.460,368.415 69.000,367.536 69.000 C 367.363 69.000,367.176 68.954,367.120 68.898 C 367.064 68.841,366.545 68.624,365.967 68.414 C 362.158 67.029,360.138 65.968,356.544 63.465 C 355.924 63.033,355.184 62.470,354.901 62.215 C 354.617 61.959,354.054 61.450,353.651 61.084 C 352.480 60.022,351.994 59.691,351.180 59.401 C 350.374 59.114,349.472 58.733,348.917 58.444 C 348.068 58.003,344.488 57.757,342.833 58.026 M311.292 58.158 C 310.581 58.218,309.910 58.357,309.800 58.467 C 309.690 58.577,309.391 58.667,309.137 58.667 C 308.727 58.667,306.485 59.640,305.587 60.208 C 304.257 61.048,302.075 62.924,302.280 63.050 C 302.355 63.096,302.904 62.681,303.500 62.128 C 308.209 57.761,315.689 56.903,321.750 60.036 C 322.666 60.510,323.055 60.783,324.367 61.875 C 325.952 63.194,327.812 66.473,328.173 68.583 C 328.251 69.042,328.394 69.867,328.490 70.417 C 328.753 71.923,328.731 97.369,328.467 97.633 C 328.123 97.977,314.234 97.915,314.101 97.570 C 314.046 97.425,314.000 92.793,314.000 87.278 C 313.999 72.665,313.796 70.905,311.881 68.933 C 309.682 66.667,304.984 67.298,303.327 70.083 C 302.142 72.075,302.167 71.743,302.167 85.404 C 302.167 95.015,302.122 97.676,301.958 97.782 C 301.640 97.988,288.478 98.047,287.946 97.844 L 287.500 97.675 287.489 81.796 C 287.483 73.062,287.407 65.054,287.320 64.000 C 287.233 62.946,287.122 61.596,287.074 61.000 C 286.935 59.290,286.325 59.427,294.368 59.368 C 302.510 59.309,301.883 59.173,302.013 61.035 L 302.110 62.417 302.138 60.964 C 302.163 59.682,302.129 59.491,301.844 59.339 C 301.356 59.078,287.296 59.104,287.033 59.367 C 286.771 59.629,286.787 61.037,287.085 63.917 C 287.277 65.777,287.327 69.453,287.330 82.046 L 287.333 97.842 287.761 98.004 C 288.588 98.319,301.921 98.213,302.188 97.890 C 302.377 97.661,302.417 95.511,302.417 85.432 C 302.417 73.352,302.515 71.000,303.020 71.000 C 303.081 71.000,303.174 70.831,303.228 70.625 C 303.767 68.555,308.296 67.009,310.446 68.161 C 311.265 68.600,312.333 69.509,312.333 69.768 C 312.333 69.882,312.432 70.075,312.553 70.196 C 312.765 70.410,313.027 71.201,313.342 72.583 C 313.492 73.242,313.816 87.547,313.831 94.167 C 313.835 96.046,313.901 97.682,313.977 97.802 C 314.160 98.090,328.266 98.096,328.614 97.808 C 328.894 97.576,328.926 71.219,328.648 70.000 C 328.554 69.587,328.418 68.875,328.346 68.417 C 328.223 67.635,328.027 67.076,327.383 65.667 C 326.897 64.604,326.616 64.086,326.390 63.833 C 326.266 63.696,325.922 63.280,325.624 62.910 C 324.578 61.609,323.209 60.501,321.761 59.784 C 319.947 58.885,319.400 58.667,318.966 58.667 C 318.747 58.667,318.485 58.585,318.386 58.486 C 318.009 58.109,314.061 57.927,311.292 58.158 M246.250 58.360 C 245.883 58.445,245.199 58.578,244.729 58.657 C 243.187 58.914,240.794 59.846,239.352 60.752 C 237.690 61.796,236.904 62.487,235.473 64.164 L 234.697 65.074 234.354 64.662 C 234.165 64.435,234.009 64.183,234.006 64.100 C 234.001 63.965,233.006 62.666,232.587 62.247 C 228.728 58.387,221.036 57.433,215.417 60.117 C 214.070 60.760,212.333 61.930,212.333 62.195 C 212.333 62.271,212.221 62.333,212.083 62.333 C 211.946 62.333,211.833 62.401,211.833 62.483 C 211.833 62.566,211.589 62.885,211.291 63.192 C 210.992 63.499,210.556 64.007,210.321 64.320 C 209.629 65.245,209.500 64.935,209.500 62.344 C 209.500 60.536,209.448 59.998,209.258 59.840 C 208.910 59.551,194.994 59.590,194.741 59.881 C 194.621 60.019,194.609 60.853,194.703 62.500 C 194.779 63.829,194.904 67.617,194.982 70.917 L 195.123 76.917 195.054 70.083 C 195.016 66.325,194.970 62.500,194.951 61.583 L 194.917 59.917 201.897 59.873 C 206.912 59.842,208.942 59.883,209.106 60.019 C 209.276 60.160,209.338 60.782,209.353 62.479 C 209.364 63.728,209.421 64.975,209.480 65.250 L 209.587 65.750 210.274 64.792 C 215.982 56.828,229.320 56.711,234.062 64.582 L 234.626 65.519 235.021 65.002 C 243.171 54.352,260.253 57.253,262.496 69.667 C 262.764 71.147,262.906 97.567,262.647 97.772 C 262.275 98.068,248.839 98.246,248.448 97.961 C 248.164 97.753,248.139 97.025,248.015 85.328 L 247.883 72.917 247.471 71.727 C 246.563 69.113,244.947 67.833,242.551 67.833 C 240.290 67.833,238.188 68.874,237.377 70.394 C 236.351 72.317,236.411 71.328,236.475 85.174 C 236.530 96.927,236.515 97.780,236.247 98.003 C 236.011 98.198,234.715 98.253,228.983 98.307 L 222.007 98.373 221.837 97.926 C 221.727 97.638,221.666 93.485,221.664 86.281 C 221.660 73.391,221.599 72.637,220.345 70.193 C 219.862 69.251,218.446 68.167,217.698 68.167 C 217.508 68.167,217.307 68.092,217.250 68.000 C 216.735 67.166,212.684 68.425,211.527 69.778 C 209.942 71.633,209.998 71.062,209.999 85.343 C 210.000 95.023,209.954 97.832,209.792 98.054 C 209.600 98.315,209.011 98.334,202.500 98.294 L 195.417 98.250 195.330 91.417 L 195.242 84.583 195.246 91.500 L 195.250 98.417 202.481 98.460 C 207.681 98.491,209.775 98.451,209.939 98.315 C 210.128 98.158,210.167 95.999,210.167 85.714 C 210.167 70.893,210.090 71.506,212.211 69.376 C 212.508 69.078,212.865 68.835,213.005 68.834 C 213.145 68.834,213.438 68.708,213.656 68.556 C 214.346 68.072,217.559 68.136,218.417 68.650 C 219.660 69.395,220.230 70.180,220.908 72.083 C 221.177 72.838,221.220 74.088,221.359 85.333 C 221.445 92.344,221.580 97.913,221.669 98.125 L 221.826 98.500 229.074 98.500 C 236.128 98.500,236.326 98.491,236.498 98.170 C 236.619 97.945,236.670 93.838,236.660 85.283 C 236.645 71.829,236.616 72.361,237.454 70.750 C 238.803 68.156,242.793 67.193,245.268 68.863 C 246.001 69.357,246.833 70.382,246.833 70.789 C 246.833 70.905,246.908 71.000,247.000 71.000 C 247.092 71.000,247.167 71.136,247.167 71.303 C 247.167 71.470,247.315 72.163,247.496 72.845 C 247.809 74.022,247.826 74.666,247.829 85.946 L 247.833 97.809 248.229 98.121 C 248.494 98.329,248.867 98.425,249.354 98.409 C 249.755 98.396,252.877 98.374,256.292 98.360 C 262.089 98.335,262.520 98.313,262.808 98.025 C 263.104 97.730,263.114 97.183,263.056 84.650 C 262.997 71.766,262.932 70.131,262.410 68.478 C 262.276 68.053,262.167 67.561,262.167 67.384 C 262.167 67.208,262.057 66.918,261.922 66.740 C 261.787 66.562,261.675 66.291,261.672 66.137 C 261.669 65.983,261.572 65.758,261.456 65.637 C 261.341 65.516,261.154 65.229,261.041 65.000 C 259.620 62.115,255.704 59.322,252.134 58.649 C 250.015 58.250,249.510 58.191,248.250 58.198 C 247.517 58.202,246.617 58.275,246.250 58.360 M172.500 58.831 C 172.179 58.908,171.467 59.094,170.917 59.243 C 170.367 59.393,169.655 59.583,169.336 59.665 C 169.017 59.748,168.730 59.895,168.697 59.991 C 168.665 60.088,168.550 60.167,168.442 60.167 C 167.482 60.167,163.672 63.083,162.619 64.624 C 162.266 65.141,161.667 65.368,161.667 64.985 C 161.667 64.884,161.535 64.631,161.375 64.421 C 161.215 64.210,160.971 63.868,160.833 63.660 C 160.204 62.709,157.293 60.352,156.717 60.328 C 156.644 60.325,156.283 60.177,155.917 60.000 C 155.550 59.823,155.086 59.675,154.885 59.672 C 154.684 59.669,154.480 59.602,154.431 59.523 C 153.775 58.461,146.019 58.851,143.417 60.077 C 143.142 60.206,142.804 60.355,142.667 60.408 C 141.075 61.021,137.727 63.972,137.321 65.121 C 137.144 65.620,137.034 64.980,136.908 62.731 C 136.842 61.550,136.725 60.415,136.648 60.208 L 136.508 59.833 129.343 59.833 L 122.178 59.833 121.984 60.196 C 121.788 60.562,121.799 60.877,122.155 65.417 C 122.241 66.517,122.317 74.370,122.323 82.869 L 122.333 98.320 122.708 98.673 C 123.079 99.022,123.143 99.025,128.833 98.930 C 131.996 98.878,135.113 98.835,135.760 98.834 C 137.788 98.833,137.583 100.336,137.583 85.465 C 137.583 73.465,137.604 72.539,137.875 72.124 C 138.035 71.879,138.166 71.545,138.166 71.381 C 138.164 70.761,137.634 72.107,137.397 73.333 C 137.194 74.388,137.174 76.436,137.272 86.430 C 137.384 97.992,137.379 98.280,137.068 98.411 C 136.336 98.718,123.093 98.729,122.839 98.423 C 122.641 98.185,122.582 95.343,122.470 80.695 C 122.396 71.100,122.269 62.650,122.186 61.917 C 121.966 59.968,121.348 60.131,129.296 60.036 L 136.115 59.954 136.391 60.347 C 136.617 60.670,136.667 61.182,136.667 63.204 C 136.667 65.977,136.849 66.308,137.655 65.002 C 138.797 63.149,141.332 61.132,143.667 60.218 C 146.653 59.048,152.439 58.742,154.160 59.663 C 154.335 59.757,154.614 59.836,154.781 59.839 C 154.947 59.842,155.383 59.990,155.750 60.167 C 156.117 60.344,156.482 60.491,156.561 60.494 C 157.542 60.533,161.188 64.021,161.575 65.292 C 161.730 65.802,161.950 65.763,162.473 65.132 C 166.170 60.675,170.571 58.694,176.333 58.891 C 183.347 59.132,188.268 62.977,189.696 69.333 C 190.088 71.079,190.383 97.597,190.016 98.156 C 189.788 98.502,176.225 98.648,175.810 98.307 C 175.562 98.105,175.527 96.958,175.443 86.333 C 175.332 72.416,175.255 71.717,173.604 69.742 C 171.831 67.622,167.699 67.609,165.532 69.718 C 164.563 70.661,163.650 72.738,163.686 73.917 L 163.701 74.417 163.859 73.833 C 163.946 73.512,164.078 72.970,164.153 72.628 C 164.227 72.286,164.362 71.911,164.454 71.795 C 164.546 71.678,164.669 71.396,164.727 71.167 C 165.255 69.100,169.194 67.695,171.702 68.679 C 172.899 69.149,174.333 70.649,174.333 71.431 C 174.333 71.567,174.440 71.845,174.570 72.048 C 174.970 72.671,175.150 76.822,175.254 87.828 C 175.323 95.136,175.408 98.305,175.539 98.463 C 175.750 98.718,189.730 98.704,190.125 98.448 C 190.370 98.290,190.418 72.875,190.177 71.000 C 189.422 65.122,186.339 61.289,180.771 59.305 C 179.169 58.735,174.101 58.444,172.500 58.831 M274.256 59.292 C 270.502 59.317,267.364 59.403,267.284 59.482 C 267.007 59.760,267.142 97.713,267.422 97.993 C 267.736 98.308,281.762 98.265,282.145 97.948 C 282.371 97.761,282.391 64.748,282.167 61.024 C 282.084 59.643,281.804 59.084,281.260 59.206 C 281.163 59.228,278.011 59.267,274.256 59.292 M281.815 59.875 C 281.892 60.081,281.965 64.750,281.978 70.250 C 281.990 75.750,282.049 84.160,282.108 88.939 L 282.217 97.628 281.869 97.814 C 281.428 98.050,268.038 98.072,267.667 97.837 C 267.317 97.616,267.187 59.863,267.535 59.642 C 267.653 59.567,270.883 59.504,274.712 59.503 L 281.675 59.500 281.815 59.875 M104.705 59.991 C 104.314 60.055,103.916 60.184,103.820 60.280 C 103.633 60.467,103.588 80.425,103.771 82.253 C 103.890 83.437,103.568 86.165,103.235 86.803 C 103.107 87.049,103.002 87.349,103.001 87.470 C 102.999 87.894,101.419 89.378,100.560 89.763 C 97.468 91.147,94.718 90.249,93.402 87.423 C 93.101 86.778,92.850 86.384,92.844 86.547 C 92.829 86.964,93.572 88.381,94.155 89.044 C 96.011 91.158,99.755 91.128,102.085 88.980 C 104.023 87.195,104.039 87.052,103.975 72.647 C 103.932 62.792,103.962 60.663,104.148 60.439 C 104.447 60.079,117.912 60.019,118.372 60.375 C 118.616 60.564,118.649 62.180,118.722 77.500 C 118.774 88.446,118.870 95.092,118.994 96.329 C 119.253 98.909,120.014 98.667,111.647 98.667 C 103.507 98.667,104.168 98.833,104.164 96.780 C 104.160 94.833,104.119 94.817,102.554 96.141 C 100.590 97.802,99.647 98.350,97.250 99.220 C 96.325 99.556,95.945 99.583,92.167 99.583 C 88.389 99.583,88.009 99.556,87.083 99.220 C 83.035 97.750,80.766 95.858,79.063 92.531 C 78.753 91.927,78.503 91.579,78.507 91.758 C 78.511 91.937,78.698 92.383,78.923 92.750 C 79.147 93.117,79.425 93.604,79.539 93.833 C 80.432 95.620,84.584 98.994,85.899 99.001 C 86.000 99.002,86.293 99.111,86.549 99.245 C 89.852 100.968,99.365 99.717,101.583 97.267 C 101.924 96.891,103.710 95.500,103.852 95.500 C 103.934 95.500,104.000 96.163,104.000 96.974 C 104.000 99.183,103.305 99.000,111.710 99.000 C 120.216 99.000,119.430 99.251,119.267 96.590 C 118.936 91.176,118.851 86.653,118.842 74.137 C 118.834 61.840,118.805 60.329,118.571 60.095 C 118.292 59.816,106.332 59.726,104.705 59.991 M82.677 60.125 C 78.735 60.163,77.719 60.218,77.510 60.407 C 77.099 60.779,77.295 88.273,77.716 89.229 C 77.872 89.584,78.000 90.076,78.000 90.322 C 78.000 90.568,78.118 90.915,78.262 91.093 C 78.515 91.405,78.521 91.401,78.417 91.000 C 77.577 87.767,77.530 86.808,77.514 72.645 C 77.502 62.747,77.539 60.675,77.728 60.519 C 77.891 60.383,79.943 60.342,85.019 60.373 L 92.083 60.417 92.170 65.833 L 92.257 71.250 92.295 65.825 C 92.341 59.375,92.609 59.988,89.758 60.039 C 88.562 60.061,85.375 60.099,82.677 60.125 M332.221 67.125 C 331.959 68.413,332.081 72.706,332.395 73.250 L 332.683 73.750 332.579 73.250 C 332.113 71.016,332.117 67.984,332.587 66.792 C 332.653 66.625,332.627 66.500,332.525 66.500 C 332.428 66.500,332.291 66.781,332.221 67.125 M46.203 68.207 C 45.828 69.255,45.663 71.444,45.837 73.069 C 46.004 74.625,46.478 76.368,46.493 75.479 C 46.497 75.239,46.387 74.723,46.250 74.333 C 45.898 73.336,45.904 69.769,46.259 68.920 C 46.402 68.579,46.496 68.144,46.468 67.954 C 46.428 67.684,46.370 67.739,46.203 68.207 M142.082 68.322 C 140.663 68.546,137.768 70.490,138.204 70.926 C 138.258 70.981,138.625 70.676,139.019 70.249 C 141.332 67.740,145.739 67.848,147.359 70.455 C 148.708 72.624,148.825 73.952,148.830 87.092 C 148.832 95.557,148.882 98.315,149.033 98.467 C 149.399 98.833,163.385 98.745,163.683 98.375 C 163.880 98.128,163.904 96.291,163.832 86.500 L 163.747 74.917 163.707 86.508 C 163.676 95.257,163.618 98.149,163.467 98.300 C 163.165 98.601,149.446 98.586,149.195 98.285 C 149.073 98.137,149.000 94.295,148.963 86.076 C 148.903 72.843,148.934 73.257,147.813 70.883 C 146.850 68.846,144.740 67.903,142.082 68.322 M332.667 74.114 C 332.667 74.313,332.769 74.579,332.895 74.704 C 333.020 74.830,333.175 75.097,333.239 75.299 C 333.303 75.501,333.426 75.667,333.511 75.667 C 333.597 75.667,333.667 75.767,333.667 75.889 C 333.667 76.477,336.401 78.794,337.917 79.491 C 338.375 79.702,338.949 79.978,339.192 80.104 C 339.436 80.230,339.748 80.333,339.887 80.333 C 340.026 80.333,340.352 80.438,340.611 80.567 C 341.680 81.096,342.369 81.332,342.797 81.317 C 343.126 81.305,342.953 81.198,342.167 80.928 C 341.571 80.723,340.872 80.468,340.614 80.361 C 340.356 80.254,340.074 80.167,339.987 80.167 C 339.900 80.167,339.699 80.096,339.539 80.010 C 339.380 79.925,338.875 79.683,338.417 79.473 C 336.090 78.409,334.195 76.665,333.103 74.585 C 332.800 74.006,332.667 73.863,332.667 74.114 M46.500 76.163 C 46.500 77.869,51.488 82.704,53.204 82.661 C 53.523 82.653,52.820 82.167,52.489 82.167 C 52.334 82.167,52.114 82.054,52.000 81.917 C 51.886 81.779,51.663 81.667,51.505 81.667 C 51.348 81.667,51.083 81.517,50.917 81.333 C 50.751 81.150,50.550 81.000,50.471 81.000 C 49.948 81.000,47.860 78.477,47.127 76.958 C 46.685 76.043,46.500 75.808,46.500 76.163 M92.371 81.583 C 92.354 83.793,92.413 84.803,92.593 85.417 L 92.838 86.250 92.734 85.167 C 92.677 84.571,92.577 82.846,92.512 81.333 L 92.395 78.583 92.371 81.583 M343.667 81.518 C 343.896 81.622,344.533 81.816,345.083 81.949 C 345.633 82.083,346.533 82.306,347.083 82.445 C 347.633 82.584,348.458 82.790,348.917 82.903 C 349.375 83.016,349.961 83.196,350.219 83.304 C 350.477 83.412,350.829 83.500,351.001 83.500 C 351.173 83.500,351.355 83.567,351.405 83.648 C 351.456 83.730,351.696 83.846,351.939 83.907 C 354.872 84.643,355.644 88.023,353.205 89.452 C 350.318 91.144,346.353 89.335,346.014 86.171 C 345.864 84.763,346.136 84.809,338.667 84.931 C 335.137 84.988,332.119 85.105,331.958 85.190 C 331.627 85.366,331.558 87.040,331.832 88.250 C 331.916 88.617,332.063 89.289,332.160 89.743 C 332.257 90.198,332.411 90.644,332.501 90.735 C 332.592 90.826,332.667 91.063,332.667 91.263 C 332.667 91.463,332.779 91.719,332.917 91.833 C 333.054 91.947,333.167 92.139,333.167 92.259 C 333.167 92.378,333.269 92.579,333.395 92.704 C 333.520 92.830,333.670 93.079,333.728 93.258 C 334.111 94.444,337.175 96.793,339.390 97.597 C 344.613 99.495,354.130 99.643,359.667 97.914 C 361.163 97.447,363.545 96.385,363.639 96.143 C 363.669 96.064,363.774 96.000,363.872 96.000 C 364.327 96.000,366.496 93.959,367.325 92.750 C 367.910 91.896,368.836 89.590,368.823 89.021 C 368.816 88.742,368.674 89.007,368.433 89.750 C 366.074 96.996,356.925 100.274,344.000 98.506 C 336.658 97.502,332.841 93.938,331.983 87.288 C 331.698 85.078,331.071 85.278,338.542 85.200 C 345.899 85.124,345.833 85.114,345.833 86.254 C 345.833 90.403,353.150 91.939,354.744 88.124 C 355.707 85.818,353.742 83.838,349.500 82.840 C 349.179 82.765,347.867 82.422,346.583 82.079 C 344.008 81.391,342.931 81.184,343.667 81.518 M54.167 82.963 C 54.837 83.207,55.952 83.231,64.606 83.186 C 71.614 83.149,74.393 83.187,74.649 83.324 C 75.003 83.514,75.003 83.514,74.960 91.132 L 74.917 98.750 71.833 98.841 L 68.750 98.932 71.917 98.924 L 75.083 98.917 75.127 91.186 C 75.160 85.324,75.121 83.396,74.968 83.212 C 74.795 83.003,73.410 82.973,65.175 83.005 C 58.450 83.030,55.409 82.985,55.001 82.854 C 53.988 82.528,53.243 82.626,54.167 82.963 M368.900 86.000 C 368.900 87.421,368.926 88.002,368.957 87.292 C 368.988 86.581,368.988 85.419,368.957 84.708 C 368.926 83.998,368.900 84.579,368.900 86.000 " stroke="none" fill="#6e6c6d" fill-rule="evenodd"></path><path id="path3" d="M267.875 42.802 C 267.450 42.843,267.333 42.931,267.333 43.209 C 267.333 43.538,267.349 43.543,267.547 43.272 C 267.765 42.973,280.493 42.650,281.347 42.921 C 281.652 43.018,281.667 43.238,281.667 47.823 L 281.667 52.624 280.844 52.733 C 280.392 52.793,277.285 52.835,273.939 52.827 C 267.589 52.812,267.643 52.818,267.447 52.083 C 267.398 51.900,267.371 52.012,267.387 52.333 L 267.417 52.917 274.583 52.917 L 281.750 52.917 281.794 48.020 C 281.827 44.402,281.786 43.061,281.639 42.883 C 281.455 42.662,270.022 42.595,267.875 42.802 M267.233 46.083 C 267.234 47.458,267.259 47.999,267.291 47.284 C 267.322 46.569,267.322 45.444,267.290 44.784 C 267.259 44.124,267.233 44.708,267.233 46.083 M55.000 44.678 C 50.038 44.865,45.774 45.951,42.333 47.903 C 41.921 48.137,41.471 48.380,41.333 48.443 C 38.124 49.909,33.578 54.833,31.505 59.089 C 30.287 61.589,29.818 63.135,29.054 67.167 C 28.480 70.193,28.711 75.298,29.594 79.102 C 30.107 81.316,31.333 84.524,31.333 83.654 C 31.333 83.514,31.269 83.329,31.191 83.242 C 31.112 83.155,30.878 82.558,30.671 81.917 C 30.463 81.275,30.218 80.563,30.125 80.333 C 29.769 79.455,29.340 76.901,28.982 73.520 C 28.764 71.469,29.105 67.097,29.605 65.536 C 29.730 65.143,29.833 64.666,29.833 64.475 C 29.833 64.139,30.128 63.122,30.623 61.750 C 32.269 57.190,35.291 53.043,38.917 50.367 C 39.558 49.893,40.171 49.432,40.278 49.343 C 40.654 49.027,43.261 47.635,44.250 47.221 C 44.800 46.991,45.321 46.734,45.408 46.651 C 45.495 46.568,45.746 46.500,45.966 46.500 C 46.186 46.500,46.564 46.391,46.808 46.258 C 47.233 46.025,47.962 45.833,49.750 45.482 C 50.208 45.393,50.996 45.229,51.500 45.118 C 52.165 44.972,55.439 44.917,63.417 44.917 L 74.417 44.917 74.460 52.157 C 74.484 56.138,74.447 59.453,74.377 59.521 C 74.307 59.590,69.975 59.692,64.750 59.747 C 54.714 59.853,54.682 59.856,52.347 60.688 C 48.005 62.236,44.654 68.391,45.512 73.240 C 45.904 75.453,47.021 78.378,47.604 78.717 C 47.730 78.790,47.833 78.942,47.833 79.055 C 47.833 79.290,49.618 81.101,50.135 81.391 C 50.324 81.497,50.838 81.803,51.277 82.071 C 51.717 82.339,52.566 82.748,53.163 82.979 L 54.250 83.398 64.332 83.457 C 70.326 83.491,74.478 83.578,74.572 83.672 C 74.919 84.019,74.908 98.269,74.561 98.405 C 73.057 98.996,52.296 98.636,49.527 97.971 C 47.479 97.479,46.199 97.122,45.667 96.894 C 45.346 96.757,44.933 96.579,44.750 96.499 C 44.567 96.419,44.236 96.303,44.016 96.241 C 43.796 96.179,43.249 95.912,42.801 95.647 C 42.352 95.383,41.939 95.167,41.882 95.167 C 40.921 95.167,35.743 90.713,34.250 88.601 C 34.067 88.342,33.823 88.031,33.708 87.910 C 33.594 87.789,33.500 87.651,33.500 87.604 C 33.500 87.556,33.275 87.183,33.000 86.776 C 32.725 86.368,32.500 85.988,32.500 85.932 C 32.500 85.726,31.458 83.987,31.380 84.064 C 31.270 84.174,32.258 86.033,33.118 87.333 C 37.161 93.450,43.385 97.255,51.407 98.514 C 54.235 98.957,74.731 99.006,74.899 98.570 C 75.081 98.095,75.013 84.003,74.827 83.656 C 74.660 83.343,74.373 83.333,65.036 83.329 C 58.973 83.327,55.170 83.262,54.750 83.153 C 54.383 83.059,53.795 82.908,53.443 82.820 C 51.122 82.234,48.343 79.891,47.035 77.416 C 44.251 72.146,45.874 65.071,50.593 61.908 C 53.246 60.130,53.917 60.040,65.199 59.944 C 70.304 59.900,74.565 59.813,74.667 59.750 C 74.990 59.550,74.869 45.162,74.540 44.792 C 74.257 44.472,62.303 44.402,55.000 44.678 M342.667 58.326 C 337.654 59.066,333.707 62.435,332.645 66.883 C 331.289 72.561,333.434 77.069,338.667 79.537 C 340.351 80.331,341.176 80.588,346.667 82.029 C 350.800 83.114,351.299 83.267,352.558 83.833 C 355.553 85.180,355.963 88.479,353.291 89.736 C 349.785 91.385,346.120 89.720,345.733 86.303 L 345.623 85.330 338.853 85.373 L 332.083 85.417 332.118 87.000 C 332.222 91.710,334.885 95.478,339.333 97.213 C 340.324 97.600,340.770 97.735,342.500 98.173 C 343.852 98.515,347.424 98.833,349.905 98.833 C 362.621 98.833,369.158 94.171,368.782 85.372 C 368.592 80.923,367.054 78.380,363.333 76.363 C 362.279 75.791,358.460 74.637,355.250 73.921 C 346.185 71.898,345.477 71.495,346.277 68.804 C 347.302 65.357,353.691 66.050,354.270 69.670 C 354.419 70.605,354.470 70.614,361.250 70.834 C 364.000 70.923,366.794 71.045,367.458 71.105 L 368.667 71.213 368.667 70.643 C 368.667 70.008,368.275 69.333,367.907 69.333 C 367.629 69.333,365.343 68.555,364.000 68.003 C 360.202 66.441,356.492 64.088,353.304 61.218 C 352.334 60.344,351.622 59.844,351.138 59.696 C 350.741 59.575,349.838 59.225,349.131 58.920 C 347.717 58.309,344.679 58.030,342.667 58.326 M309.833 58.744 C 307.285 59.417,305.572 60.370,303.247 62.406 C 302.124 63.390,302.083 63.356,301.951 61.322 C 301.899 60.505,301.808 59.761,301.751 59.668 C 301.542 59.329,287.372 59.449,287.190 59.792 C 287.091 59.977,287.117 60.812,287.260 62.083 C 287.429 63.579,287.493 67.527,287.514 77.750 C 287.530 85.267,287.590 92.842,287.647 94.583 L 287.750 97.750 294.917 97.750 L 302.083 97.750 302.170 85.000 C 302.264 71.098,302.218 71.736,303.257 70.078 C 305.423 66.622,310.767 66.578,312.816 70.000 C 313.008 70.321,313.165 70.471,313.165 70.333 C 313.164 69.960,312.635 69.227,311.791 68.430 C 309.980 66.719,305.632 67.000,303.821 68.944 C 301.919 70.987,301.987 70.394,301.998 84.769 C 302.003 91.562,301.960 97.243,301.902 97.394 C 301.762 97.760,288.048 97.818,287.908 97.453 C 287.862 97.335,287.760 89.179,287.680 79.328 C 287.591 68.391,287.469 61.172,287.368 60.789 C 287.066 59.654,286.982 59.667,294.684 59.667 L 301.461 59.667 301.562 60.042 C 301.617 60.248,301.667 60.754,301.674 61.167 C 301.711 63.493,302.102 63.878,303.263 62.730 C 304.194 61.810,305.148 61.035,305.804 60.667 C 306.049 60.529,306.287 60.374,306.333 60.322 C 306.484 60.151,307.899 59.562,308.833 59.281 C 313.710 57.818,318.473 58.353,322.515 60.820 C 324.044 61.753,325.864 63.758,326.726 65.458 C 326.876 65.756,327.112 66.218,327.250 66.484 C 327.387 66.750,327.500 67.110,327.500 67.284 C 327.500 67.458,327.591 67.691,327.702 67.802 C 328.089 68.189,328.200 70.125,328.314 78.417 L 328.428 86.750 328.464 78.677 C 328.507 69.103,328.449 68.589,326.997 65.583 C 324.263 59.922,316.731 56.921,309.833 58.744 M348.833 59.027 C 349.521 59.305,350.282 59.638,350.526 59.766 C 350.769 59.895,351.123 60.000,351.311 60.000 C 351.500 60.000,352.089 60.403,352.619 60.896 C 353.149 61.388,353.846 62.007,354.167 62.270 C 355.892 63.688,358.419 65.461,359.667 66.129 C 361.625 67.178,361.854 67.292,362.917 67.760 C 363.467 68.002,364.104 68.290,364.333 68.399 C 364.689 68.570,366.149 69.047,367.667 69.489 C 368.129 69.624,368.504 70.396,368.236 70.664 C 368.031 70.869,356.032 70.495,354.897 70.248 C 354.631 70.190,354.516 70.000,354.433 69.478 C 353.883 66.039,347.345 65.201,346.145 68.417 C 345.541 70.033,345.924 71.382,347.133 71.902 C 347.472 72.049,347.863 72.234,348.000 72.314 C 348.342 72.512,349.828 72.930,351.333 73.249 C 352.021 73.395,352.996 73.620,353.500 73.749 C 354.533 74.012,357.696 74.765,358.833 75.019 C 359.246 75.111,359.733 75.250,359.917 75.328 C 360.100 75.406,360.662 75.595,361.167 75.748 C 366.253 77.287,368.810 80.962,368.628 86.473 C 368.573 88.147,368.166 90.208,367.817 90.575 C 367.734 90.662,367.667 90.857,367.667 91.008 C 367.667 91.160,367.442 91.594,367.167 91.974 C 366.892 92.353,366.667 92.726,366.667 92.803 C 366.667 93.166,363.150 96.167,362.724 96.167 C 362.624 96.167,361.160 96.802,360.797 97.004 C 360.510 97.163,359.936 97.325,358.083 97.768 C 354.434 98.640,350.741 98.840,346.083 98.417 C 343.459 98.179,342.675 98.045,341.144 97.572 C 340.719 97.441,340.295 97.333,340.201 97.333 C 338.834 97.333,334.928 94.403,333.885 92.594 C 332.907 90.899,332.494 89.461,332.385 87.373 L 332.287 85.496 338.843 85.540 L 345.400 85.583 345.584 86.583 C 346.261 90.265,350.325 91.779,353.874 89.672 C 356.135 88.329,355.555 84.898,352.869 83.730 C 351.624 83.189,350.573 82.798,350.167 82.725 C 349.938 82.684,349.357 82.540,348.876 82.405 C 347.404 81.992,346.299 81.698,345.167 81.418 C 344.571 81.271,343.746 81.049,343.333 80.924 C 342.921 80.800,342.321 80.644,342.000 80.580 C 341.679 80.515,341.342 80.406,341.250 80.337 C 341.158 80.269,340.877 80.163,340.624 80.103 C 340.104 79.979,338.005 78.977,337.250 78.492 C 336.975 78.316,336.600 78.104,336.417 78.022 C 336.073 77.867,334.239 75.971,333.883 75.403 C 332.790 73.657,332.458 72.267,332.549 69.819 C 332.650 67.103,332.802 66.437,333.802 64.333 C 335.950 59.814,343.866 57.020,348.833 59.027 M245.917 58.759 C 241.386 59.433,237.452 61.733,235.117 65.072 C 234.699 65.670,234.601 65.626,233.940 64.542 C 230.241 58.478,220.666 56.991,213.694 61.398 C 212.933 61.880,210.503 64.299,210.496 64.583 C 210.493 64.675,210.275 65.011,210.010 65.330 L 209.529 65.910 209.440 65.330 C 209.390 65.011,209.303 63.701,209.247 62.420 C 209.181 60.911,209.075 60.045,208.947 59.963 C 208.839 59.893,205.637 59.854,201.833 59.877 L 194.917 59.917 194.927 61.167 C 194.933 61.854,195.026 63.842,195.134 65.583 C 195.259 67.592,195.331 74.063,195.332 83.280 C 195.333 96.265,195.361 97.837,195.595 98.071 C 195.945 98.422,209.081 98.472,209.552 98.125 C 209.813 97.933,209.838 96.938,209.876 85.250 L 209.917 72.583 210.362 71.545 C 211.192 69.605,212.216 68.707,214.333 68.065 C 215.206 67.800,217.266 67.757,217.417 68.000 C 217.473 68.092,217.685 68.167,217.888 68.167 C 219.203 68.167,220.895 70.418,221.395 72.833 C 221.442 73.063,221.458 72.906,221.430 72.485 C 221.083 67.199,212.901 65.808,210.577 70.639 C 210.415 70.975,210.163 71.475,210.016 71.750 C 209.780 72.193,209.744 73.703,209.702 85.040 L 209.653 97.830 209.285 97.906 C 208.449 98.078,196.251 98.122,195.884 97.955 L 195.507 97.783 195.493 82.683 C 195.486 74.344,195.403 66.389,195.309 64.917 C 195.214 63.450,195.125 61.762,195.110 61.167 L 195.083 60.083 201.945 60.040 L 208.806 59.996 208.894 60.456 C 208.943 60.710,209.032 61.982,209.093 63.285 C 209.192 65.405,209.426 66.492,209.713 66.166 C 209.753 66.121,210.140 65.541,210.573 64.877 C 213.262 60.758,219.308 58.399,224.978 59.256 C 226.044 59.417,227.028 59.604,227.166 59.671 C 227.304 59.739,227.867 59.965,228.417 60.174 C 229.844 60.716,231.099 61.565,232.250 62.769 C 233.534 64.112,233.571 64.159,233.982 64.965 C 234.173 65.339,234.396 65.686,234.478 65.736 C 234.666 65.853,235.499 65.210,235.503 64.946 C 235.517 64.053,240.850 60.000,242.012 60.000 C 242.115 60.000,242.436 59.899,242.725 59.775 C 247.187 57.860,253.623 58.775,257.797 61.917 C 259.163 62.945,261.038 65.571,261.590 67.230 C 262.462 69.849,262.505 70.713,262.459 84.693 L 262.417 97.750 255.537 97.794 C 250.116 97.828,248.644 97.792,248.592 97.627 C 248.556 97.511,248.479 92.354,248.420 86.167 C 248.361 79.979,248.261 74.542,248.198 74.083 C 248.135 73.625,248.107 78.724,248.137 85.414 C 248.173 93.601,248.248 97.647,248.366 97.789 C 248.567 98.032,262.084 98.100,262.462 97.860 C 262.720 97.697,262.755 71.956,262.500 70.167 C 261.384 62.333,254.362 57.502,245.917 58.759 M173.417 58.994 C 172.958 59.073,172.283 59.217,171.917 59.315 L 171.250 59.493 172.000 59.428 C 172.412 59.393,173.471 59.268,174.351 59.151 C 176.093 58.920,179.125 59.226,180.583 59.780 C 182.938 60.674,184.997 61.931,186.132 63.167 C 186.342 63.396,186.697 63.782,186.921 64.024 C 188.236 65.448,189.399 68.560,189.651 71.333 C 189.912 74.196,189.919 97.612,189.660 97.925 C 189.390 98.250,176.190 98.290,175.867 97.967 C 175.711 97.811,175.667 97.830,175.667 98.050 C 175.667 98.406,189.713 98.496,189.932 98.142 C 190.056 97.941,190.031 71.280,189.906 70.943 C 189.867 70.837,189.727 70.124,189.595 69.359 C 188.424 62.580,180.841 57.722,173.417 58.994 M147.250 59.419 C 143.063 60.024,139.415 62.192,137.667 65.114 C 136.851 66.477,136.723 66.266,136.595 63.354 C 136.532 61.922,136.443 60.619,136.396 60.458 C 136.286 60.081,122.955 60.001,122.447 60.375 C 122.189 60.565,122.179 60.800,122.332 63.000 C 122.425 64.329,122.548 72.729,122.606 81.667 C 122.665 90.718,122.778 98.046,122.862 98.208 C 123.026 98.528,136.479 98.667,136.972 98.354 C 137.154 98.239,137.191 96.027,137.176 86.148 C 137.157 73.219,137.177 72.851,138.001 71.190 C 139.961 67.241,146.102 67.096,147.928 70.956 C 148.912 73.037,148.878 72.550,148.985 85.861 C 149.039 92.614,149.147 98.202,149.224 98.278 C 149.381 98.433,163.328 98.394,163.484 98.238 C 163.539 98.183,163.583 92.501,163.583 85.611 L 163.583 73.083 164.121 71.788 C 166.074 67.087,172.318 66.610,174.443 71.000 C 175.365 72.906,175.380 73.109,175.489 85.917 L 175.591 97.750 175.629 86.107 C 175.662 75.879,175.634 74.320,175.396 73.274 C 174.526 69.439,172.928 67.904,169.833 67.930 C 166.659 67.957,164.993 69.037,163.803 71.840 L 163.417 72.750 163.388 85.389 C 163.373 92.341,163.334 98.055,163.302 98.087 C 163.158 98.231,149.731 98.344,149.529 98.202 C 149.350 98.077,149.294 95.972,149.236 87.232 C 149.160 75.625,149.097 73.240,148.861 72.941 C 148.778 72.836,148.662 72.480,148.602 72.151 C 148.117 69.454,146.310 68.082,143.250 68.086 C 139.857 68.090,138.175 69.389,137.160 72.786 C 137.000 73.322,136.946 76.439,136.933 85.870 L 136.917 98.250 130.094 98.294 C 126.341 98.318,123.212 98.278,123.140 98.206 C 123.068 98.134,122.960 91.477,122.901 83.413 C 122.841 75.348,122.708 66.924,122.604 64.693 C 122.501 62.461,122.454 60.613,122.500 60.586 C 122.648 60.498,136.134 60.414,136.219 60.500 C 136.264 60.546,136.334 61.827,136.374 63.348 C 136.470 66.980,136.594 67.142,137.849 65.275 C 139.105 63.407,142.385 60.670,143.373 60.666 C 143.489 60.665,143.808 60.544,144.083 60.396 C 146.014 59.358,153.417 59.277,155.250 60.273 C 155.433 60.372,155.778 60.500,156.015 60.557 C 157.479 60.906,160.374 63.506,161.219 65.232 C 161.782 66.381,162.065 66.336,163.067 64.932 C 163.826 63.867,165.014 62.707,165.852 62.212 C 166.117 62.056,166.333 61.869,166.333 61.797 C 166.333 61.725,166.429 61.667,166.546 61.667 C 166.663 61.667,166.945 61.535,167.171 61.375 C 167.721 60.986,169.985 60.000,170.329 60.000 C 170.480 60.000,170.749 59.890,170.926 59.755 C 171.749 59.133,169.964 59.742,167.750 60.839 C 165.867 61.771,164.235 63.078,163.074 64.583 C 162.175 65.747,161.741 65.998,161.568 65.450 C 161.121 64.027,158.689 61.596,156.833 60.716 C 155.637 60.148,154.819 59.833,154.542 59.833 C 154.372 59.833,154.162 59.766,154.075 59.684 C 153.578 59.215,149.702 59.065,147.250 59.419 M268.334 59.639 C 267.191 59.747,267.269 58.167,267.397 78.825 C 267.484 92.732,267.564 97.626,267.709 97.801 C 267.979 98.127,281.534 98.033,281.864 97.703 C 282.026 97.541,282.066 96.348,282.038 92.538 C 281.819 62.887,281.781 59.903,281.612 59.692 C 281.447 59.486,270.417 59.441,268.334 59.639 M281.575 60.042 C 281.691 60.411,281.807 97.274,281.693 97.450 C 281.555 97.664,268.349 97.888,268.022 97.682 C 267.884 97.596,267.778 97.183,267.754 96.645 C 267.661 94.556,267.659 60.148,267.751 59.998 C 267.914 59.734,281.493 59.777,281.575 60.042 M110.181 60.294 C 105.942 60.326,104.381 60.391,104.198 60.543 C 103.983 60.722,103.962 62.254,104.038 72.566 C 104.133 85.381,104.111 85.787,103.236 87.610 C 101.440 91.353,95.582 91.768,93.533 88.299 C 92.280 86.178,92.296 86.361,92.216 72.792 C 92.147 60.982,92.137 60.662,91.820 60.493 C 91.460 60.300,77.943 60.334,77.749 60.529 C 77.433 60.845,77.675 87.677,78.007 89.057 C 79.124 93.707,81.023 96.263,84.756 98.140 C 87.462 99.500,88.842 99.745,93.083 99.620 C 97.547 99.487,99.905 98.560,102.897 95.759 C 104.104 94.630,104.092 94.622,104.222 96.619 C 104.306 97.894,104.393 98.299,104.623 98.476 C 104.973 98.746,118.586 98.647,118.860 98.373 C 118.957 98.276,118.956 97.247,118.857 95.650 L 118.697 93.083 118.723 95.667 L 118.750 98.250 111.788 98.293 L 104.826 98.337 104.656 97.888 C 104.562 97.641,104.440 96.852,104.384 96.136 C 104.251 94.402,104.090 94.304,103.038 95.312 C 99.657 98.554,97.580 99.328,92.249 99.331 C 85.627 99.335,81.708 97.256,79.371 92.500 C 77.929 89.565,77.948 89.788,77.884 74.316 L 77.828 60.715 78.855 60.607 C 81.186 60.364,91.460 60.483,91.734 60.757 C 91.960 60.984,91.992 62.315,91.998 71.920 C 92.006 86.123,92.121 87.169,93.913 89.298 C 96.099 91.897,101.727 91.103,103.294 87.975 C 104.314 85.938,104.250 86.932,104.250 73.167 L 104.250 60.583 111.156 60.540 C 116.570 60.506,118.090 60.542,118.195 60.706 C 118.268 60.822,118.340 64.592,118.355 69.083 C 118.369 73.575,118.431 80.813,118.491 85.167 C 118.588 92.113,118.606 91.107,118.634 76.958 C 118.672 58.309,118.852 60.102,116.948 60.198 C 116.381 60.227,113.336 60.270,110.181 60.294 M241.875 67.619 C 242.127 67.658,242.540 67.658,242.792 67.619 C 243.044 67.581,242.838 67.550,242.333 67.550 C 241.829 67.550,241.623 67.581,241.875 67.619 M239.917 67.979 C 238.632 68.513,238.197 68.831,237.559 69.698 C 236.063 71.736,236.076 71.593,236.135 85.527 C 236.185 97.097,236.174 97.642,235.885 97.727 C 235.309 97.898,222.345 97.912,222.175 97.741 C 222.071 97.638,221.993 93.246,221.964 85.830 C 221.927 76.766,221.869 73.988,221.706 73.667 C 221.504 73.267,221.499 73.274,221.588 73.833 C 221.639 74.154,221.718 79.592,221.764 85.917 C 221.810 92.242,221.883 97.585,221.927 97.792 L 222.006 98.167 228.888 98.167 C 234.134 98.167,235.837 98.117,236.055 97.958 C 236.319 97.765,236.343 96.813,236.379 85.000 C 236.423 70.664,236.330 71.719,237.710 69.883 C 238.437 68.916,239.145 68.437,240.500 67.997 C 241.064 67.814,241.257 67.700,241.000 67.701 C 240.771 67.701,240.283 67.826,239.917 67.979 M244.020 67.897 C 245.840 68.547,246.944 69.798,247.575 71.922 C 247.737 72.469,247.893 72.992,247.922 73.083 C 247.950 73.175,247.980 73.025,247.987 72.750 C 248.040 70.724,245.496 67.641,243.798 67.674 C 243.507 67.680,243.559 67.732,244.020 67.897 M313.167 70.706 C 313.167 70.764,313.240 71.003,313.329 71.237 C 313.911 72.770,314.000 74.709,314.000 85.904 C 314.000 92.922,314.061 97.140,314.168 97.419 L 314.335 97.860 321.320 97.805 C 325.162 97.775,328.368 97.688,328.445 97.611 C 328.521 97.535,328.587 95.810,328.591 93.778 L 328.599 90.083 328.546 93.621 C 328.499 96.774,328.462 97.175,328.205 97.313 C 327.666 97.601,314.509 97.618,314.331 97.331 C 314.241 97.186,314.174 92.308,314.170 85.583 C 314.163 74.774,314.114 73.369,313.683 71.605 C 313.549 71.053,313.167 70.388,313.167 70.706 M328.383 88.000 C 328.383 88.504,328.415 88.710,328.453 88.458 C 328.491 88.206,328.491 87.794,328.453 87.542 C 328.415 87.290,328.383 87.496,328.383 88.000 " stroke="none" fill="#949494" fill-rule="evenodd"></path><path id="path4" d="M70.908 44.458 C 73.768 44.500,74.280 44.547,74.574 44.795 C 74.916 45.082,74.916 45.082,74.599 44.708 C 74.287 44.340,74.223 44.334,70.933 44.371 L 67.583 44.409 70.908 44.458 M55.049 44.624 C 55.671 44.656,56.646 44.656,57.215 44.623 C 57.784 44.591,57.275 44.564,56.083 44.565 C 54.892 44.565,54.426 44.592,55.049 44.624 M281.904 49.083 C 281.904 51.100,281.929 51.902,281.958 50.866 C 281.987 49.829,281.987 48.179,281.958 47.199 C 281.928 46.219,281.904 47.067,281.904 49.083 M267.224 49.750 C 267.224 50.483,267.254 50.763,267.289 50.371 C 267.324 49.979,267.324 49.379,267.288 49.037 C 267.252 48.696,267.223 49.017,267.224 49.750 M267.212 52.000 C 267.212 52.413,267.245 52.581,267.284 52.375 C 267.324 52.169,267.324 51.831,267.284 51.625 C 267.245 51.419,267.212 51.587,267.212 52.000 M270.700 53.124 C 271.497 53.154,272.847 53.155,273.700 53.124 C 274.552 53.094,273.900 53.069,272.250 53.069 C 270.600 53.069,269.902 53.093,270.700 53.124 M313.296 58.289 C 313.688 58.324,314.288 58.324,314.629 58.288 C 314.971 58.252,314.650 58.223,313.917 58.224 C 313.183 58.224,312.904 58.254,313.296 58.289 M346.042 58.282 C 346.202 58.323,346.465 58.323,346.625 58.282 C 346.785 58.240,346.654 58.205,346.333 58.205 C 346.012 58.205,345.881 58.240,346.042 58.282 M220.708 58.948 C 220.869 58.990,221.131 58.990,221.292 58.948 C 221.452 58.906,221.321 58.872,221.000 58.872 C 220.679 58.872,220.548 58.906,220.708 58.948 M149.792 59.118 C 149.998 59.157,150.335 59.157,150.542 59.118 C 150.748 59.078,150.579 59.045,150.167 59.045 C 149.754 59.045,149.585 59.078,149.792 59.118 M292.386 59.458 C 294.111 59.485,296.886 59.485,298.553 59.458 C 300.219 59.431,298.808 59.409,295.417 59.409 C 292.025 59.409,290.661 59.431,292.386 59.458 M267.542 59.610 C 267.427 59.657,267.333 59.772,267.333 59.868 C 267.333 59.987,267.398 59.987,267.542 59.867 C 267.657 59.772,268.014 59.662,268.334 59.624 L 268.917 59.553 268.333 59.540 C 268.012 59.532,267.656 59.564,267.542 59.610 M269.628 59.621 C 269.928 59.658,270.378 59.657,270.628 59.619 C 270.878 59.581,270.633 59.551,270.083 59.552 C 269.533 59.553,269.328 59.584,269.628 59.621 M69.621 59.954 C 69.917 59.990,70.442 59.991,70.788 59.955 C 71.134 59.919,70.892 59.889,70.250 59.888 C 69.608 59.887,69.325 59.917,69.621 59.954 M72.463 59.956 C 72.855 59.991,73.455 59.990,73.796 59.954 C 74.137 59.919,73.817 59.890,73.083 59.890 C 72.350 59.891,72.071 59.920,72.463 59.956 M128.052 60.125 C 129.593 60.152,132.068 60.152,133.552 60.125 C 135.036 60.097,133.775 60.075,130.750 60.075 C 127.725 60.075,126.511 60.097,128.052 60.125 M104.145 60.458 C 103.943 60.716,103.947 60.726,104.181 60.544 C 104.377 60.391,105.939 60.326,110.181 60.292 L 115.917 60.245 110.145 60.206 C 104.820 60.170,104.356 60.189,104.145 60.458 M122.171 60.411 C 122.060 60.545,122.007 60.752,122.054 60.869 C 122.110 61.007,122.145 60.982,122.154 60.800 C 122.161 60.644,122.298 60.440,122.458 60.347 C 122.619 60.253,122.665 60.175,122.562 60.172 C 122.459 60.169,122.283 60.277,122.171 60.411 M209.218 61.083 C 209.219 61.633,209.250 61.838,209.287 61.539 C 209.325 61.239,209.324 60.789,209.286 60.539 C 209.248 60.288,209.217 60.533,209.218 61.083 M287.042 61.083 C 287.044 61.450,287.078 61.580,287.118 61.373 C 287.158 61.166,287.156 60.866,287.115 60.706 C 287.073 60.547,287.040 60.717,287.042 61.083 M136.557 61.917 C 136.558 62.650,136.587 62.929,136.622 62.537 C 136.657 62.145,136.657 61.545,136.621 61.204 C 136.585 60.863,136.557 61.183,136.557 61.917 M103.894 62.417 C 103.895 63.333,103.923 63.687,103.956 63.203 C 103.990 62.718,103.990 61.968,103.956 61.536 C 103.921 61.104,103.894 61.500,103.894 62.417 M122.212 62.333 C 122.212 62.746,122.245 62.915,122.284 62.708 C 122.324 62.502,122.324 62.165,122.284 61.958 C 122.245 61.752,122.212 61.921,122.212 62.333 M281.909 68.583 C 281.909 72.250,281.931 73.726,281.958 71.864 C 281.985 70.002,281.985 67.002,281.958 65.197 C 281.931 63.393,281.909 64.917,281.909 68.583 M164.740 62.708 L 164.250 63.250 164.792 62.760 C 165.090 62.491,165.333 62.248,165.333 62.219 C 165.333 62.090,165.196 62.203,164.740 62.708 M77.579 73.750 C 77.579 80.075,77.600 82.638,77.625 79.446 C 77.650 76.254,77.650 71.079,77.625 67.946 C 77.600 64.813,77.579 67.425,77.579 73.750 M186.250 63.000 C 186.608 63.367,186.938 63.667,186.984 63.667 C 187.030 63.667,186.775 63.367,186.417 63.000 C 186.059 62.633,185.728 62.333,185.682 62.333 C 185.637 62.333,185.892 62.633,186.250 63.000 M211.240 63.542 L 210.750 64.083 211.292 63.594 C 211.797 63.138,211.910 63.000,211.781 63.000 C 211.752 63.000,211.509 63.244,211.240 63.542 M287.383 64.500 C 287.383 65.004,287.415 65.210,287.453 64.958 C 287.491 64.706,287.491 64.294,287.453 64.042 C 287.415 63.790,287.383 63.996,287.383 64.500 M122.387 65.500 C 122.387 66.096,122.417 66.340,122.454 66.042 C 122.491 65.744,122.491 65.256,122.454 64.958 C 122.417 64.660,122.387 64.904,122.387 65.500 M195.243 75.083 C 195.244 79.300,195.265 81.001,195.292 78.864 C 195.318 76.726,195.318 73.276,195.291 71.197 C 195.265 69.118,195.243 70.867,195.243 75.083 M308.044 67.620 C 308.297 67.658,308.672 67.657,308.877 67.617 C 309.082 67.578,308.875 67.546,308.417 67.548 C 307.958 67.549,307.791 67.581,308.044 67.620 M241.788 67.787 C 242.084 67.824,242.609 67.824,242.955 67.788 C 243.300 67.752,243.058 67.722,242.417 67.721 C 241.775 67.721,241.492 67.750,241.788 67.787 M169.627 68.118 C 169.834 68.158,170.134 68.156,170.294 68.115 C 170.453 68.073,170.283 68.040,169.917 68.042 C 169.550 68.044,169.420 68.078,169.627 68.118 M28.714 69.250 C 28.716 69.708,28.748 69.876,28.786 69.623 C 28.825 69.369,28.824 68.994,28.784 68.789 C 28.744 68.584,28.713 68.792,28.714 69.250 M332.224 70.083 C 332.224 70.817,332.254 71.096,332.289 70.704 C 332.324 70.312,332.324 69.712,332.288 69.371 C 332.252 69.029,332.223 69.350,332.224 70.083 M165.491 69.625 L 164.917 70.250 165.542 69.676 C 166.123 69.141,166.243 69.000,166.116 69.000 C 166.088 69.000,165.807 69.281,165.491 69.625 M138.824 69.958 L 138.250 70.583 138.875 70.009 C 139.457 69.474,139.577 69.333,139.449 69.333 C 139.422 69.333,139.140 69.615,138.824 69.958 M357.627 70.785 C 357.834 70.824,358.134 70.823,358.294 70.781 C 358.453 70.739,358.283 70.707,357.917 70.709 C 357.550 70.711,357.420 70.745,357.627 70.785 M362.125 70.955 C 362.515 70.990,363.152 70.990,363.542 70.955 C 363.931 70.920,363.613 70.892,362.833 70.892 C 362.054 70.892,361.735 70.920,362.125 70.955 M328.578 80.500 C 328.578 85.771,328.599 87.927,328.625 85.292 C 328.651 82.656,328.651 78.344,328.625 75.708 C 328.599 73.073,328.578 75.229,328.578 80.500 M92.242 77.250 C 92.242 80.642,92.264 82.006,92.291 80.281 C 92.319 78.556,92.319 75.781,92.291 74.114 C 92.264 72.447,92.242 73.858,92.242 77.250 M45.705 72.667 C 45.705 72.987,45.740 73.119,45.782 72.958 C 45.823 72.798,45.823 72.535,45.782 72.375 C 45.740 72.215,45.705 72.346,45.705 72.667 M190.079 83.750 C 190.079 89.983,190.100 92.509,190.125 89.363 C 190.150 86.217,190.150 81.117,190.125 78.029 C 190.100 74.942,190.079 77.517,190.079 83.750 M209.912 84.917 C 209.912 91.333,209.933 93.934,209.958 90.696 C 209.984 87.458,209.984 82.208,209.958 79.029 C 209.933 75.851,209.912 78.500,209.912 84.917 M28.712 74.167 C 28.712 74.579,28.745 74.748,28.784 74.542 C 28.824 74.335,28.824 73.998,28.784 73.792 C 28.745 73.585,28.712 73.754,28.712 74.167 M163.578 82.667 C 163.578 87.662,163.599 89.706,163.625 87.208 C 163.651 84.710,163.651 80.623,163.625 78.125 C 163.599 75.627,163.578 77.671,163.578 82.667 M313.887 75.333 C 313.887 75.929,313.917 76.173,313.954 75.875 C 313.991 75.577,313.991 75.090,313.954 74.792 C 313.917 74.494,313.887 74.737,313.887 75.333 M175.402 77.417 C 175.401 78.975,175.426 79.635,175.457 78.883 C 175.488 78.131,175.488 76.856,175.458 76.050 C 175.427 75.243,175.402 75.858,175.402 77.417 M122.578 84.500 C 122.578 89.679,122.599 91.798,122.625 89.208 C 122.651 86.619,122.651 82.381,122.625 79.792 C 122.599 77.202,122.578 79.321,122.578 84.500 M248.077 83.333 C 248.077 87.871,248.099 89.727,248.125 87.458 C 248.151 85.190,248.151 81.477,248.125 79.208 C 248.099 76.940,248.077 78.796,248.077 83.333 M366.000 78.250 C 366.311 78.571,366.603 78.833,366.649 78.833 C 366.695 78.833,366.478 78.571,366.167 78.250 C 365.856 77.929,365.564 77.667,365.518 77.667 C 365.472 77.667,365.689 77.929,366.000 78.250 M221.745 87.833 C 221.745 93.287,221.766 95.519,221.792 92.792 C 221.817 90.065,221.817 85.602,221.792 82.875 C 221.766 80.148,221.745 82.379,221.745 87.833 M104.068 81.750 C 104.068 83.308,104.093 83.968,104.124 83.217 C 104.155 82.465,104.155 81.190,104.124 80.383 C 104.094 79.577,104.068 80.192,104.068 81.750 M65.636 83.291 C 67.315 83.319,70.015 83.319,71.636 83.291 C 73.257 83.264,71.883 83.242,68.583 83.242 C 65.283 83.242,63.957 83.264,65.636 83.291 M195.214 83.917 C 195.216 84.375,195.248 84.543,195.286 84.289 C 195.325 84.036,195.324 83.661,195.284 83.456 C 195.244 83.251,195.213 83.458,195.214 83.917 M137.243 89.917 C 137.243 93.583,137.265 95.060,137.292 93.197 C 137.318 91.335,137.318 88.335,137.291 86.531 C 137.265 84.726,137.243 86.250,137.243 89.917 M236.409 90.083 C 236.409 93.842,236.431 95.403,236.458 93.553 C 236.485 91.703,236.485 88.628,236.458 86.719 C 236.431 84.811,236.409 86.325,236.409 90.083 M262.743 90.167 C 262.743 93.971,262.765 95.527,262.791 93.625 C 262.818 91.723,262.818 88.610,262.791 86.708 C 262.765 84.806,262.743 86.362,262.743 90.167 M267.409 89.583 C 267.409 93.067,267.431 94.515,267.458 92.803 C 267.485 91.090,267.485 88.240,267.458 86.469 C 267.431 84.699,267.409 86.100,267.409 89.583 M337.052 85.291 C 338.593 85.319,341.068 85.319,342.552 85.291 C 344.036 85.264,342.775 85.241,339.750 85.241 C 336.725 85.241,335.511 85.264,337.052 85.291 M331.900 85.567 C 331.850 85.696,331.836 86.052,331.868 86.359 C 331.919 86.848,331.936 86.819,332.006 86.125 C 332.088 85.313,332.058 85.156,331.900 85.567 M345.705 86.000 C 345.705 86.321,345.740 86.452,345.782 86.292 C 345.823 86.131,345.823 85.869,345.782 85.708 C 345.740 85.548,345.705 85.679,345.705 86.000 M282.072 91.667 C 282.072 94.004,282.096 94.960,282.125 93.792 C 282.153 92.623,282.153 90.710,282.125 89.542 C 282.096 88.373,282.072 89.329,282.072 91.667 M102.158 88.958 L 101.583 89.583 102.208 89.009 C 102.790 88.474,102.910 88.333,102.783 88.333 C 102.755 88.333,102.474 88.615,102.158 88.958 M118.728 91.583 C 118.728 92.500,118.756 92.854,118.790 92.369 C 118.824 91.885,118.823 91.135,118.789 90.703 C 118.755 90.270,118.727 90.667,118.728 91.583 M36.250 91.333 C 36.794 91.883,37.277 92.333,37.323 92.333 C 37.369 92.333,36.961 91.883,36.417 91.333 C 35.872 90.783,35.390 90.333,35.344 90.333 C 35.298 90.333,35.706 90.783,36.250 91.333 M349.958 90.451 C 350.165 90.491,350.502 90.491,350.708 90.451 C 350.915 90.411,350.746 90.379,350.333 90.379 C 349.921 90.379,349.752 90.411,349.958 90.451 M287.532 94.865 C 287.514 96.395,287.556 97.682,287.625 97.725 C 287.694 97.767,287.730 96.928,287.706 95.860 C 287.629 92.393,287.564 92.023,287.532 94.865 M118.879 95.667 C 118.879 96.079,118.911 96.248,118.951 96.042 C 118.991 95.835,118.991 95.498,118.951 95.292 C 118.911 95.085,118.879 95.254,118.879 95.667 M209.872 97.333 C 209.872 97.654,209.906 97.785,209.948 97.625 C 209.990 97.465,209.990 97.202,209.948 97.042 C 209.906 96.881,209.872 97.013,209.872 97.333 M104.205 97.667 C 104.205 97.987,104.240 98.119,104.282 97.958 C 104.323 97.798,104.323 97.535,104.282 97.375 C 104.240 97.215,104.205 97.346,104.205 97.667 M118.992 97.787 C 118.946 98.175,118.972 98.428,119.050 98.350 C 119.127 98.273,119.165 97.956,119.133 97.646 C 119.076 97.097,119.073 97.101,118.992 97.787 M149.039 97.667 C 149.039 97.987,149.073 98.119,149.115 97.958 C 149.157 97.798,149.157 97.535,149.115 97.375 C 149.073 97.215,149.039 97.346,149.039 97.667 M325.792 97.784 C 325.998 97.824,326.335 97.824,326.542 97.784 C 326.748 97.745,326.579 97.712,326.167 97.712 C 325.754 97.712,325.585 97.745,325.792 97.784 M221.876 98.000 C 221.935 98.216,222.753 98.250,227.931 98.253 L 233.917 98.257 228.008 98.209 C 223.550 98.174,222.064 98.112,221.954 97.956 C 221.847 97.805,221.826 97.817,221.876 98.000 M280.625 97.951 C 280.831 97.991,281.169 97.991,281.375 97.951 C 281.581 97.911,281.412 97.879,281.000 97.879 C 280.587 97.879,280.419 97.911,280.625 97.951 M291.364 97.958 C 293.168 97.985,296.168 97.985,298.031 97.958 C 299.893 97.931,298.417 97.909,294.750 97.909 C 291.083 97.909,289.560 97.931,291.364 97.958 M122.672 98.105 C 122.658 98.627,123.135 98.671,128.270 98.625 L 133.417 98.578 128.217 98.539 C 123.465 98.503,123.002 98.475,122.847 98.208 C 122.753 98.048,122.675 98.001,122.672 98.105 M249.958 98.124 C 250.715 98.155,251.952 98.155,252.708 98.124 C 253.465 98.093,252.846 98.068,251.333 98.068 C 249.821 98.068,249.202 98.093,249.958 98.124 M159.542 98.457 C 160.252 98.488,161.415 98.488,162.125 98.457 C 162.835 98.426,162.254 98.400,160.833 98.400 C 159.412 98.400,158.831 98.426,159.542 98.457 M178.792 98.458 C 180.373 98.485,182.960 98.485,184.542 98.458 C 186.123 98.431,184.829 98.408,181.667 98.408 C 178.504 98.408,177.210 98.431,178.792 98.458 M116.048 98.623 C 116.578 98.657,117.403 98.656,117.881 98.623 C 118.359 98.589,117.925 98.562,116.917 98.562 C 115.908 98.563,115.517 98.590,116.048 98.623 M134.042 98.615 C 134.202 98.657,134.465 98.657,134.625 98.615 C 134.785 98.573,134.654 98.539,134.333 98.539 C 134.012 98.539,133.881 98.573,134.042 98.615 M345.875 98.782 C 346.035 98.823,346.298 98.823,346.458 98.782 C 346.619 98.740,346.488 98.705,346.167 98.705 C 345.846 98.705,345.715 98.740,345.875 98.782 M353.375 98.782 C 353.535 98.823,353.798 98.823,353.958 98.782 C 354.119 98.740,353.988 98.705,353.667 98.705 C 353.346 98.705,353.215 98.740,353.375 98.782 M57.720 98.958 C 59.811 98.985,63.186 98.985,65.220 98.958 C 67.253 98.932,65.542 98.910,61.417 98.910 C 57.292 98.910,55.628 98.932,57.720 98.958 M349.049 98.957 C 349.671 98.989,350.646 98.989,351.215 98.957 C 351.784 98.924,351.275 98.898,350.083 98.898 C 348.892 98.898,348.426 98.925,349.049 98.957 " stroke="none" fill="#8c8a8a" fill-rule="evenodd"></path></g></svg>